EB Garamond 12-Regular.ufo
<glyph name="comma" format="1">
  <advance width="230"/>
  <unicode hex="002C"/>
  <note>
    comma
  </note>
  <outline>
    <contour>
      <point x="89" y="-147"/>
      <point x="182" y="-81"/>
      <point x="182" y="20" type="curve" smooth="yes"/>
      <point x="182" y="76"/>
      <point x="147" y="117"/>
      <point x="99" y="117" type="curve" smooth="yes"/>
      <point x="70" y="117"/>
      <point x="44" y="98"/>
      <point x="44" y="71" type="curve" smooth="yes"/>
      <point x="44" y="49"/>
      <point x="62" y="32"/>
      <point x="91" y="29" type="curve" smooth="yes"/>
      <point x="113" y="27"/>
      <point x="130" y="1"/>
      <point x="130" y="-15" type="curve" smooth="yes"/>
      <point x="130" y="-85"/>
      <point x="77" y="-115"/>
      <point x="34" y="-124" type="curve" smooth="yes"/>
      <point x="25" y="-126"/>
      <point x="20" y="-131"/>
      <point x="20" y="-136" type="curve" smooth="yes"/>
      <point x="20" y="-142"/>
      <point x="26" y="-147"/>
      <point x="38" y="-147" type="curve" smooth="yes"/>
    </contour>
  </outline>
</glyph>
<glyph name="O" format="1">
  <advance width="763"/>
  <unicode hex="004F"/>
  <note>
    O
  </note>
  <outline>
    <contour>
      <point x="599" y="-14"/>
      <point x="718" y="155"/>
      <point x="718" y="335" type="curve" smooth="yes"/>
      <point x="718" y="532"/>
      <point x="562" y="664"/>
      <point x="386" y="664" type="curve" smooth="yes"/>
      <point x="164" y="664"/>
      <point x="45" y="495"/>
      <point x="45" y="315" type="curve" smooth="yes"/>
      <point x="45" y="118"/>
      <point x="201" y="-14"/>
      <point x="377" y="-14" type="curve" smooth="yes"/>
    </contour>
    <contour>
      <point x="225" y="26"/>
      <point x="141" y="179"/>
      <point x="141" y="365" type="curve" smooth="yes"/>
      <point x="141" y="521"/>
      <point x="219" y="622"/>
      <point x="370" y="622" type="curve" smooth="yes"/>
      <point x="537" y="622"/>
      <point x="622" y="471"/>
      <point x="622" y="286" type="curve" smooth="yes"/>
      <point x="622" y="129"/>
      <point x="545" y="26"/>
      <point x="392" y="26" type="curve" smooth="yes"/>
    </contour>
    <contour>
      <point x="391" y="675" type="move" name="top.cap"/>
    </contour>
    <contour>
      <point x="372" y="-30" type="move" name="bottom.cap"/>
    </contour>
  </outline>
</glyph>
<glyph name="backslash" format="1">
  <advance width="399"/>
  <unicode hex="005C"/>
  <note>
    backslash
  </note>
  <outline>
    <contour>
      <point x="375" y="-62"/>
      <point x="382" y="-55"/>
      <point x="378" y="-47" type="curve" smooth="yes"/>
      <point x="81" y="648" type="line" smooth="yes"/>
      <point x="74" y="663"/>
      <point x="59" y="665"/>
      <point x="42" y="665" type="curve" smooth="yes"/>
      <point x="29" y="665"/>
      <point x="25" y="657"/>
      <point x="29" y="648" type="curve" smooth="yes"/>
      <point x="326" y="-47" type="line" smooth="yes"/>
      <point x="332" y="-61"/>
      <point x="347" y="-62"/>
      <point x="362" y="-62" type="curve" smooth="yes"/>
    </contour>
  </outline>
</glyph>
<glyph name="dieresis" format="1">
  <advance width="300"/>
  <unicode hex="00A8"/>
  <note>
    dieresis
  </note>
  <outline>
    <component base="uni0308" xOffset="150" yOffset="19"/>
    <contour>
      <point x="150" y="440" type="move" name="_top"/>
    </contour>
  </outline>
</glyph>
<glyph name="ordfeminine" format="1">
  <advance width="310"/>
  <unicode hex="00AA"/>
  <note>
    ordfeminine
  </note>
  <outline>
    <contour>
      <point x="59" y="196" type="line" smooth="yes"/>
      <point x="46" y="196"/>
      <point x="35" y="182"/>
      <point x="35" y="173" type="curve" smooth="yes"/>
      <point x="35" y="167"/>
      <point x="42" y="161"/>
      <point x="49" y="161" type="curve" smooth="yes"/>
      <point x="247" y="161" type="line" smooth="yes"/>
      <point x="262" y="161"/>
      <point x="271" y="169"/>
      <point x="278" y="182" type="curve"/>
      <point x="278" y="183"/>
      <point x="279" y="184"/>
      <point x="279" y="185" type="curve" smooth="yes"/>
      <point x="279" y="191"/>
      <point x="271" y="196"/>
      <point x="265" y="196" type="curve" smooth="yes"/>
    </contour>
    <component base="a.ordn" xOffset="10" yOffset="-7"/>
  </outline>
</glyph>
<glyph name="oslash" format="1">
  <advance width="485"/>
  <unicode hex="00F8"/>
  <note>
    oslash
  </note>
  <outline>
    <contour>
      <point x="53" y="-15"/>
      <point x="55" y="-14"/>
      <point x="57" y="-12" type="curve"/>
      <point x="452" y="374" type="line"/>
      <point x="459" y="380"/>
      <point x="463" y="391"/>
      <point x="463" y="400" type="curve" smooth="yes"/>
      <point x="463" y="408"/>
      <point x="459" y="415"/>
      <point x="449" y="415" type="curve" smooth="yes"/>
      <point x="445" y="415"/>
      <point x="441" y="414"/>
      <point x="438" y="411" type="curve"/>
      <point x="36" y="25" type="line"/>
      <point x="30" y="20"/>
      <point x="26" y="12"/>
      <point x="26" y="5" type="curve" smooth="yes"/>
      <point x="26" y="-4"/>
      <point x="38" y="-15"/>
      <point x="50" y="-15" type="curve" smooth="yes"/>
    </contour>
    <component base="o"/>
  </outline>
</glyph>
<glyph name="Hbar" format="1">
  <advance width="810"/>
  <unicode hex="0126"/>
  <note>
    Hbar
  </note>
  <outline>
    <contour>
      <point x="731" y="456" type="line" smooth="yes"/>
      <point x="747" y="456"/>
      <point x="762" y="471"/>
      <point x="762" y="480" type="curve" smooth="yes"/>
      <point x="762" y="488"/>
      <point x="756" y="492"/>
      <point x="749" y="492" type="curve"/>
      <point x="76" y="492" type="line" smooth="yes"/>
      <point x="63" y="492"/>
      <point x="52" y="485"/>
      <point x="52" y="474" type="curve" smooth="yes"/>
      <point x="52" y="465"/>
      <point x="60" y="456"/>
      <point x="68" y="456" type="curve" smooth="yes"/>
    </contour>
    <component base="H"/>
  </outline>
</glyph>
<glyph name="OE" format="1">
  <advance width="932"/>
  <unicode hex="0152"/>
  <note>
    OE
  </note>
  <outline>
    <contour>
      <point x="456" y="-14"/>
      <point x="521" y="7"/>
      <point x="573" y="43" type="curve"/>
      <point x="528" y="92" type="line"/>
      <point x="528" y="36"/>
      <point x="477" y="26"/>
      <point x="391" y="26" type="curve" smooth="yes"/>
      <point x="230" y="26"/>
      <point x="143" y="156"/>
      <point x="143" y="345" type="curve" smooth="yes"/>
      <point x="143" y="514"/>
      <point x="220" y="623"/>
      <point x="370" y="623" type="curve" smooth="yes"/>
      <point x="447" y="623"/>
      <point x="528" y="613"/>
      <point x="528" y="527" type="curve"/>
      <point x="573" y="609" type="line"/>
      <point x="519" y="644"/>
      <point x="454" y="664"/>
      <point x="386" y="664" type="curve" smooth="yes"/>
      <point x="164" y="664"/>
      <point x="45" y="495"/>
      <point x="45" y="315" type="curve" smooth="yes"/>
      <point x="45" y="118"/>
      <point x="201" y="-14"/>
      <point x="377" y="-14" type="curve" smooth="yes"/>
    </contour>
    <component base="E" xOffset="383"/>
    <contour>
      <point x="367" y="675" type="move" name="top.cap"/>
    </contour>
    <contour>
      <point x="357" y="-30" type="move" name="bottom.cap"/>
    </contour>
  </outline>
</glyph>
<glyph name="Tbar" format="1">
  <advance width="670"/>
  <unicode hex="0166"/>
  <note>
    Tbar
  </note>
  <outline>
    <contour>
      <point x="490" y="332" type="line"/>
      <point x="505" y="332"/>
      <point x="514" y="341"/>
      <point x="521" y="354" type="curve"/>
      <point x="524" y="361"/>
      <point x="515" y="368"/>
      <point x="508" y="368" type="curve"/>
      <point x="181" y="368" type="line"/>
      <point x="169" y="368"/>
      <point x="157" y="359"/>
      <point x="157" y="350" type="curve" smooth="yes"/>
      <point x="157" y="344"/>
      <point x="162" y="332"/>
      <point x="171" y="332" type="curve"/>
    </contour>
    <component base="T"/>
  </outline>
</glyph>
<glyph name="florin" format="1">
  <advance width="325"/>
  <unicode hex="0192"/>
  <note>
    florin
  </note>
  <outline>
    <contour>
      <point x="-32" y="-207"/>
      <point x="83" y="-134"/>
      <point x="106" y="-27" type="curve" smooth="yes"/>
      <point x="139" y="129"/>
      <point x="153" y="195"/>
      <point x="180" y="346" type="curve"/>
      <point x="183" y="358"/>
      <point x="191" y="362"/>
      <point x="205" y="362" type="curve" smooth="yes"/>
      <point x="296" y="363" type="line" smooth="yes"/>
      <point x="314" y="363"/>
      <point x="325" y="383"/>
      <point x="325" y="392" type="curve" smooth="yes"/>
      <point x="325" y="400"/>
      <point x="322" y="403"/>
      <point x="318" y="403" type="curve" smooth="yes"/>
      <point x="284" y="403"/>
      <point x="250" y="400"/>
      <point x="210" y="400" type="curve" smooth="yes"/>
      <point x="204" y="400"/>
      <point x="200" y="402"/>
      <point x="200" y="409" type="curve"/>
      <point x="207" y="440"/>
      <point x="214" y="472"/>
      <point x="222" y="503" type="curve" smooth="yes"/>
      <point x="238" y="569"/>
      <point x="262" y="622"/>
      <point x="307" y="622" type="curve" smooth="yes"/>
      <point x="329" y="622"/>
      <point x="347" y="608"/>
      <point x="359" y="581" type="curve" smooth="yes"/>
      <point x="369" y="559"/>
      <point x="376" y="542"/>
      <point x="386" y="542" type="curve" smooth="yes"/>
      <point x="404" y="542"/>
      <point x="427" y="559"/>
      <point x="427" y="593" type="curve" smooth="yes"/>
      <point x="427" y="634"/>
      <point x="392" y="663"/>
      <point x="333" y="663" type="curve" smooth="yes"/>
      <point x="261" y="663"/>
      <point x="183" y="596"/>
      <point x="147" y="450" type="curve" smooth="yes"/>
      <point x="139" y="418" type="line" smooth="yes"/>
      <point x="136" y="406"/>
      <point x="129" y="399"/>
      <point x="120" y="398" type="curve" smooth="yes"/>
      <point x="50" y="394" type="line"/>
      <point x="40" y="393"/>
      <point x="31" y="379"/>
      <point x="31" y="368" type="curve" smooth="yes"/>
      <point x="31" y="361"/>
      <point x="35" y="356"/>
      <point x="44" y="356" type="curve" smooth="yes"/>
      <point x="106" y="357" type="line" smooth="yes"/>
      <point x="120" y="357"/>
      <point x="123" y="352"/>
      <point x="120" y="339" type="curve" smooth="yes"/>
      <point x="42" y="-32" type="line" smooth="yes"/>
      <point x="18" y="-146"/>
      <point x="-10" y="-167"/>
      <point x="-48" y="-167" type="curve" smooth="yes"/>
      <point x="-72" y="-167"/>
      <point x="-88" y="-156"/>
      <point x="-100" y="-143" type="curve" smooth="yes"/>
      <point x="-113" y="-129"/>
      <point x="-122" y="-115"/>
      <point x="-132" y="-115" type="curve" smooth="yes"/>
      <point x="-145" y="-115"/>
      <point x="-171" y="-137"/>
      <point x="-171" y="-157" type="curve" smooth="yes"/>
      <point x="-171" y="-190"/>
      <point x="-138" y="-207"/>
      <point x="-88" y="-207" type="curve" smooth="yes"/>
    </contour>
  </outline>
</glyph>
<glyph name="uni01B6" format="1">
  <advance width="377"/>
  <unicode hex="01B6"/>
  <note>
    uni01B6
  </note>
  <outline>
    <contour>
      <point x="295" y="183" type="line" smooth="yes"/>
      <point x="310" y="183"/>
      <point x="319" y="191"/>
      <point x="326" y="204" type="curve"/>
      <point x="326" y="205"/>
      <point x="327" y="206"/>
      <point x="327" y="207" type="curve" smooth="yes"/>
      <point x="327" y="212"/>
      <point x="319" y="217"/>
      <point x="313" y="217" type="curve" smooth="yes"/>
      <point x="86" y="217" type="line" smooth="yes"/>
      <point x="74" y="217"/>
      <point x="62" y="209"/>
      <point x="62" y="200" type="curve" smooth="yes"/>
      <point x="62" y="194"/>
      <point x="67" y="183"/>
      <point x="76" y="183" type="curve"/>
    </contour>
    <component base="z"/>
  </outline>
</glyph>
<glyph name="uni01B7" format="1">
  <advance width="510"/>
  <unicode hex="01B7"/>
  <note>
    uni01B7
  </note>
  <outline>
    <contour>
      <point x="322" y="-14"/>
      <point x="459" y="53"/>
      <point x="460" y="205" type="curve" smooth="yes"/>
      <point x="460" y="321"/>
      <point x="371" y="382"/>
      <point x="271" y="382" type="curve" smooth="yes"/>
      <point x="265" y="382"/>
      <point x="267" y="389"/>
      <point x="270" y="393" type="curve" smooth="yes"/>
      <point x="451" y="631" type="line" smooth="yes"/>
      <point x="455" y="636"/>
      <point x="451" y="653"/>
      <point x="445" y="653" type="curve" smooth="yes"/>
      <point x="435" y="653"/>
      <point x="419" y="650"/>
      <point x="399" y="650" type="curve" smooth="yes"/>
      <point x="161" y="650" type="line" smooth="yes"/>
      <point x="138" y="650"/>
      <point x="116" y="651"/>
      <point x="110" y="655" type="curve"/>
      <point x="100" y="663"/>
      <point x="90" y="669"/>
      <point x="85" y="669" type="curve" smooth="yes"/>
      <point x="80" y="669"/>
      <point x="71" y="667"/>
      <point x="70" y="652" type="curve" smooth="yes"/>
      <point x="69" y="622"/>
      <point x="53" y="574"/>
      <point x="46" y="553" type="curve"/>
      <point x="43" y="545"/>
      <point x="39" y="534"/>
      <point x="39" y="526" type="curve" smooth="yes"/>
      <point x="39" y="520"/>
      <point x="42" y="515"/>
      <point x="48" y="515" type="curve" smooth="yes"/>
      <point x="63" y="515"/>
      <point x="71" y="535"/>
      <point x="76" y="547" type="curve"/>
      <point x="94" y="596"/>
      <point x="136" y="613"/>
      <point x="169" y="613" type="curve" smooth="yes"/>
      <point x="335" y="613" type="line" smooth="yes"/>
      <point x="351" y="613"/>
      <point x="365" y="611"/>
      <point x="365" y="601" type="curve" smooth="yes"/>
      <point x="365" y="591"/>
      <point x="361" y="589"/>
      <point x="355" y="582" type="curve" smooth="yes"/>
      <point x="208" y="395" type="line" smooth="yes"/>
      <point x="191" y="373"/>
      <point x="191" y="372"/>
      <point x="191" y="361" type="curve" smooth="yes"/>
      <point x="191" y="348"/>
      <point x="200" y="345"/>
      <point x="214" y="345" type="curve" smooth="yes"/>
      <point x="225" y="345"/>
      <point x="224" y="346"/>
      <point x="237" y="346" type="curve" smooth="yes"/>
      <point x="319" y="346"/>
      <point x="370" y="266"/>
      <point x="370" y="189" type="curve" smooth="yes"/>
      <point x="370" y="103"/>
      <point x="323" y="17"/>
      <point x="218" y="17" type="curve" smooth="yes"/>
      <point x="163" y="17"/>
      <point x="107" y="60"/>
      <point x="79" y="130" type="curve" smooth="yes"/>
      <point x="67" y="159"/>
      <point x="59" y="174"/>
      <point x="55" y="174" type="curve" smooth="yes"/>
      <point x="45" y="174"/>
      <point x="35" y="167"/>
      <point x="35" y="159" type="curve" smooth="yes"/>
      <point x="35" y="123"/>
      <point x="42" y="80"/>
      <point x="46" y="52" type="curve" smooth="yes"/>
      <point x="49" y="34"/>
      <point x="67" y="21"/>
      <point x="80" y="15" type="curve" smooth="yes"/>
      <point x="112" y="0"/>
      <point x="147" y="-14"/>
      <point x="201" y="-14" type="curve" smooth="yes"/>
    </contour>
    <contour>
      <point x="249" y="675" type="move" name="top.cap"/>
    </contour>
  </outline>
</glyph>
<glyph name="uni01E4" format="1">
  <advance width="729"/>
  <unicode hex="01E4"/>
  <note>
    uni01E4
  </note>
  <outline>
    <contour>
      <point x="665" y="134" type="line"/>
      <point x="680" y="134"/>
      <point x="689" y="143"/>
      <point x="696" y="156" type="curve"/>
      <point x="696" y="157"/>
      <point x="697" y="158"/>
      <point x="697" y="159" type="curve" smooth="yes"/>
      <point x="697" y="165"/>
      <point x="689" y="170"/>
      <point x="683" y="170" type="curve"/>
      <point x="393" y="170" type="line"/>
      <point x="381" y="170"/>
      <point x="369" y="161"/>
      <point x="369" y="152" type="curve" smooth="yes"/>
      <point x="369" y="146"/>
      <point x="374" y="134"/>
      <point x="383" y="134" type="curve"/>
    </contour>
    <component base="G"/>
  </outline>
</glyph>
<glyph name="uni023A" format="1">
  <advance width="692"/>
  <unicode hex="023A"/>
  <note>
    uni023A
  </note>
  <outline>
    <contour>
      <point x="139" y="-92"/>
      <point x="156" y="-90"/>
      <point x="165" y="-74" type="curve"/>
      <point x="607" y="700" type="line"/>
      <point x="607" y="701"/>
      <point x="608" y="703"/>
      <point x="608" y="704" type="curve" smooth="yes"/>
      <point x="608" y="711"/>
      <point x="601" y="717"/>
      <point x="594" y="717" type="curve" smooth="yes"/>
      <point x="575" y="717"/>
      <point x="557" y="717"/>
      <point x="548" y="700" type="curve"/>
      <point x="106" y="-74" type="line"/>
      <point x="102" y="-80"/>
      <point x="105" y="-77"/>
      <point x="105" y="-77" type="curve"/>
      <point x="105" y="-84"/>
      <point x="109" y="-92"/>
      <point x="120" y="-92" type="curve" smooth="yes"/>
    </contour>
    <component base="A"/>
  </outline>
</glyph>
<glyph name="uni023B" format="1">
  <advance width="640"/>
  <unicode hex="023B"/>
  <note>
    uni023B
  </note>
  <outline>
    <contour>
      <point x="149" y="-92"/>
      <point x="166" y="-90"/>
      <point x="175" y="-74" type="curve"/>
      <point x="617" y="700" type="line"/>
      <point x="617" y="701"/>
      <point x="618" y="703"/>
      <point x="618" y="704" type="curve" smooth="yes"/>
      <point x="618" y="711"/>
      <point x="611" y="717"/>
      <point x="604" y="717" type="curve" smooth="yes"/>
      <point x="585" y="717"/>
      <point x="567" y="717"/>
      <point x="558" y="700" type="curve"/>
      <point x="116" y="-74" type="line"/>
      <point x="112" y="-80"/>
      <point x="115" y="-77"/>
      <point x="115" y="-77" type="curve"/>
      <point x="115" y="-84"/>
      <point x="119" y="-92"/>
      <point x="130" y="-92" type="curve" smooth="yes"/>
    </contour>
    <component base="C"/>
  </outline>
</glyph>
<glyph name="uni023D" format="1">
  <advance width="584"/>
  <unicode hex="023D"/>
  <note>
    uni023D
  </note>
  <outline>
    <contour>
      <point x="358" y="317" type="line"/>
      <point x="373" y="317"/>
      <point x="382" y="326"/>
      <point x="389" y="339" type="curve"/>
      <point x="389" y="340"/>
      <point x="390" y="341"/>
      <point x="390" y="342" type="curve" smooth="yes"/>
      <point x="390" y="348"/>
      <point x="382" y="353"/>
      <point x="376" y="353" type="curve"/>
      <point x="69" y="353" type="line"/>
      <point x="57" y="353"/>
      <point x="45" y="344"/>
      <point x="45" y="335" type="curve" smooth="yes"/>
      <point x="45" y="329"/>
      <point x="50" y="317"/>
      <point x="59" y="317" type="curve"/>
    </contour>
    <component base="L"/>
  </outline>
</glyph>
<glyph name="uni024F" format="1">
  <advance width="438"/>
  <unicode hex="024F"/>
  <note>
    uni024F
  </note>
  <outline>
    <contour>
      <point x="410" y="245" type="line"/>
      <point x="425" y="245"/>
      <point x="434" y="253"/>
      <point x="441" y="266" type="curve"/>
      <point x="441" y="267"/>
      <point x="442" y="268"/>
      <point x="442" y="269" type="curve" smooth="yes"/>
      <point x="442" y="274"/>
      <point x="434" y="279"/>
      <point x="428" y="279" type="curve"/>
      <point x="66" y="279" type="line"/>
      <point x="54" y="279"/>
      <point x="42" y="271"/>
      <point x="42" y="262" type="curve" smooth="yes"/>
      <point x="42" y="256"/>
      <point x="47" y="245"/>
      <point x="56" y="245" type="curve"/>
    </contour>
    <component base="y" xOffset="21"/>
  </outline>
</glyph>
<glyph name="uni0280" format="1">
  <advance width="484"/>
  <unicode hex="0280"/>
  <note>
    uni0280
  </note>
  <outline>
    <contour>
      <point x="449" y="-13"/>
      <point x="488" y="-5"/>
      <point x="488" y="5" type="curve" smooth="yes"/>
      <point x="488" y="15"/>
      <point x="478" y="17"/>
      <point x="471" y="18" type="curve" smooth="yes"/>
      <point x="457" y="20"/>
      <point x="410" y="39"/>
      <point x="391" y="62" type="curve" smooth="yes"/>
      <point x="363" y="94"/>
      <point x="328" y="153"/>
      <point x="310" y="199" type="curve"/>
      <point x="308" y="203"/>
      <point x="311" y="206"/>
      <point x="316" y="208" type="curve" smooth="yes"/>
      <point x="350" y="219"/>
      <point x="391" y="252"/>
      <point x="390" y="305" type="curve"/>
      <point x="390" y="384"/>
      <point x="316" y="406"/>
      <point x="238" y="406" type="curve" smooth="yes"/>
      <point x="202" y="406"/>
      <point x="160" y="401"/>
      <point x="135" y="401" type="curve" smooth="yes"/>
      <point x="104" y="401"/>
      <point x="87" y="406"/>
      <point x="52" y="406" type="curve" smooth="yes"/>
      <point x="46" y="406"/>
      <point x="34" y="402"/>
      <point x="34" y="395" type="curve" smooth="yes"/>
      <point x="34" y="386"/>
      <point x="45" y="380"/>
      <point x="56" y="378" type="curve" smooth="yes"/>
      <point x="93" y="372"/>
      <point x="108" y="352"/>
      <point x="108" y="315" type="curve" smooth="yes"/>
      <point x="108" y="71" type="line" smooth="yes"/>
      <point x="108" y="39"/>
      <point x="80" y="29"/>
      <point x="48" y="22" type="curve" smooth="yes"/>
      <point x="39" y="21"/>
      <point x="27" y="17"/>
      <point x="27" y="8" type="curve" smooth="yes"/>
      <point x="27" y="1"/>
      <point x="39" y="-3"/>
      <point x="45" y="-3" type="curve" smooth="yes"/>
      <point x="80" y="-3"/>
      <point x="104" y="3"/>
      <point x="142" y="3" type="curve" smooth="yes"/>
      <point x="174" y="3"/>
      <point x="188" y="-1"/>
      <point x="223" y="-1" type="curve" smooth="yes"/>
      <point x="229" y="-1"/>
      <point x="241" y="3"/>
      <point x="241" y="10" type="curve" smooth="yes"/>
      <point x="241" y="19"/>
      <point x="229" y="22"/>
      <point x="220" y="24" type="curve" smooth="yes"/>
      <point x="188" y="30"/>
      <point x="175" y="39"/>
      <point x="175" y="71" type="curve" smooth="yes"/>
      <point x="175" y="168" type="line" smooth="yes"/>
      <point x="175" y="176"/>
      <point x="186" y="182"/>
      <point x="193" y="182" type="curve" smooth="yes"/>
      <point x="220" y="182"/>
      <point x="246" y="169"/>
      <point x="253" y="156" type="curve" smooth="yes"/>
      <point x="272" y="117"/>
      <point x="314" y="54"/>
      <point x="332" y="32" type="curve" smooth="yes"/>
      <point x="355" y="4"/>
      <point x="385" y="-13"/>
      <point x="421" y="-13" type="curve" smooth="yes"/>
    </contour>
    <contour>
      <point x="183" y="207"/>
      <point x="175" y="208"/>
      <point x="175" y="229" type="curve" smooth="yes"/>
      <point x="175" y="355" type="line" smooth="yes"/>
      <point x="175" y="376"/>
      <point x="182" y="380"/>
      <point x="205" y="380" type="curve" smooth="yes"/>
      <point x="260" y="380"/>
      <point x="318" y="352"/>
      <point x="318" y="296" type="curve" smooth="yes"/>
      <point x="319" y="230"/>
      <point x="265" y="207"/>
      <point x="197" y="207" type="curve" smooth="yes"/>
    </contour>
    <contour>
      <point x="225" y="451" type="move" name="top"/>
    </contour>
    <contour>
      <point x="259" y="-27" type="move" name="bottom"/>
    </contour>
  </outline>
</glyph>
<glyph name="circumflex" format="1">
  <advance width="300"/>
  <unicode hex="02C6"/>
  <note>
    circumflex
  </note>
  <outline>
    <component base="caron" yOffset="1103" yScale="-1"/>
    <contour>
      <point x="150" y="440" type="move" name="_top"/>
    </contour>
  </outline>
</glyph>
<glyph name="caron" format="1">
  <advance width="300"/>
  <unicode hex="02C7"/>
  <note>
    caron
  </note>
  <outline>
    <component base="uni030C" xOffset="150"/>
    <contour>
      <point x="150" y="440" type="move" name="_top"/>
    </contour>
  </outline>
</glyph>
<glyph name="uni02C8" format="1">
  <advance width="200"/>
  <unicode hex="02C8"/>
  <note>
    uni02C8
  </note>
  <outline>
    <contour>
      <point x="104" y="500"/>
      <point x="127" y="518"/>
      <point x="127" y="525" type="curve" smooth="yes"/>
      <point x="127" y="691" type="line" smooth="yes"/>
      <point x="127" y="699"/>
      <point x="122" y="707"/>
      <point x="114" y="707" type="curve" smooth="yes"/>
      <point x="105" y="707"/>
      <point x="72" y="692"/>
      <point x="72" y="684" type="curve" smooth="yes"/>
      <point x="72" y="519" type="line" smooth="yes"/>
      <point x="72" y="510"/>
      <point x="77" y="500"/>
      <point x="85" y="500" type="curve" smooth="yes"/>
    </contour>
  </outline>
</glyph>
<glyph name="uni02D1" format="1">
  <advance width="200"/>
  <unicode hex="02D1"/>
  <note>
    uni02D1
  </note>
  <outline>
    <contour>
      <point x="100" y="250" type="line"/>
      <point x="175" y="370" type="line"/>
      <point x="25" y="370" type="line"/>
    </contour>
  </outline>
</glyph>
<glyph name="dotaccent" format="1">
  <advance width="200"/>
  <unicode hex="02D9"/>
  <note>
    dotaccent
  </note>
  <outline>
    <contour>
      <point x="129" y="516"/>
      <point x="151" y="538"/>
      <point x="151" y="566" type="curve" smooth="yes"/>
      <point x="151" y="595"/>
      <point x="129" y="617"/>
      <point x="100" y="617" type="curve" smooth="yes"/>
      <point x="72" y="617"/>
      <point x="50" y="595"/>
      <point x="50" y="566" type="curve" smooth="yes"/>
      <point x="50" y="538"/>
      <point x="72" y="516"/>
      <point x="100" y="516" type="curve" smooth="yes"/>
    </contour>
    <contour>
      <point x="100" y="440" type="move" name="_top"/>
    </contour>
  </outline>
</glyph>
<glyph name="uni02E0" format="1">
  <advance width="462"/>
  <unicode hex="02E0"/>
  <note>
    uni02E0
  </note>
  <outline>
    <contour>
      <point x="203" y="214"/>
      <point x="240" y="262"/>
      <point x="240" y="307" type="curve" smooth="yes"/>
      <point x="240" y="346"/>
      <point x="221" y="392"/>
      <point x="211" y="411" type="curve" smooth="yes"/>
      <point x="188" y="457" type="line"/>
      <point x="253" y="599" type="line" smooth="yes"/>
      <point x="262" y="619"/>
      <point x="280" y="638"/>
      <point x="292" y="642" type="curve"/>
      <point x="300" y="645"/>
      <point x="307" y="648"/>
      <point x="307" y="654" type="curve" smooth="yes"/>
      <point x="307" y="659"/>
      <point x="299" y="659"/>
      <point x="294" y="659" type="curve" smooth="yes"/>
      <point x="282" y="659"/>
      <point x="279" y="656"/>
      <point x="256" y="656" type="curve" smooth="yes"/>
      <point x="231" y="656"/>
      <point x="212" y="659"/>
      <point x="203" y="659" type="curve" smooth="yes"/>
      <point x="198" y="659"/>
      <point x="190" y="659"/>
      <point x="190" y="654" type="curve" smooth="yes"/>
      <point x="190" y="648"/>
      <point x="197" y="645"/>
      <point x="204" y="642" type="curve"/>
      <point x="213" y="639"/>
      <point x="224" y="634"/>
      <point x="224" y="618" type="curve" smooth="yes"/>
      <point x="224" y="611"/>
      <point x="220" y="597"/>
      <point x="216" y="589" type="curve" smooth="yes"/>
      <point x="174" y="492" type="line" smooth="yes"/>
      <point x="173" y="490"/>
      <point x="173" y="490"/>
      <point x="172" y="492" type="curve" smooth="yes"/>
      <point x="129" y="594" type="line" smooth="yes"/>
      <point x="127" y="599"/>
      <point x="121" y="616"/>
      <point x="121" y="621" type="curve" smooth="yes"/>
      <point x="121" y="634"/>
      <point x="132" y="639"/>
      <point x="141" y="642" type="curve" smooth="yes"/>
      <point x="147" y="644"/>
      <point x="156" y="648"/>
      <point x="156" y="654" type="curve" smooth="yes"/>
      <point x="156" y="659"/>
      <point x="148" y="659"/>
      <point x="143" y="659" type="curve" smooth="yes"/>
      <point x="118" y="659"/>
      <point x="114" y="656"/>
      <point x="84" y="656" type="curve" smooth="yes"/>
      <point x="62" y="656"/>
      <point x="58" y="659"/>
      <point x="33" y="659" type="curve" smooth="yes"/>
      <point x="29" y="659"/>
      <point x="20" y="659"/>
      <point x="20" y="654" type="curve" smooth="yes"/>
      <point x="20" y="648"/>
      <point x="28" y="645"/>
      <point x="35" y="642" type="curve"/>
      <point x="48" y="638"/>
      <point x="59" y="625"/>
      <point x="65" y="611" type="curve" smooth="yes"/>
      <point x="147" y="431" type="line"/>
      <point x="131" y="403" type="line" smooth="yes"/>
      <point x="117" y="377"/>
      <point x="93" y="333"/>
      <point x="93" y="286" type="curve" smooth="yes"/>
      <point x="93" y="248"/>
      <point x="120" y="214"/>
      <point x="158" y="214" type="curve" smooth="yes"/>
    </contour>
    <contour>
      <point x="132" y="233"/>
      <point x="122" y="267"/>
      <point x="122" y="297" type="curve" smooth="yes"/>
      <point x="122" y="331"/>
      <point x="145" y="369"/>
      <point x="150" y="381" type="curve" smooth="yes"/>
      <point x="159" y="398" type="line"/>
      <point x="168" y="380" type="line" smooth="yes"/>
      <point x="180" y="355"/>
      <point x="195" y="324"/>
      <point x="195" y="286" type="curve" smooth="yes"/>
      <point x="195" y="262"/>
      <point x="186" y="233"/>
      <point x="162" y="233" type="curve" smooth="yes"/>
    </contour>
  </outline>
</glyph>
<glyph name="uni0306" format="1">
  <advance width="0"/>
  <unicode hex="0306"/>
  <note>
    uni0306
  </note>
  <outline>
    <contour>
      <point x="70" y="478"/>
      <point x="107" y="534"/>
      <point x="107" y="584" type="curve" smooth="yes"/>
      <point x="107" y="597"/>
      <point x="102" y="608"/>
      <point x="92" y="608" type="curve" smooth="yes"/>
      <point x="82" y="608"/>
      <point x="79" y="597"/>
      <point x="77" y="587" type="curve" smooth="yes"/>
      <point x="72" y="562"/>
      <point x="50" y="538"/>
      <point x="0" y="538" type="curve" smooth="yes"/>
      <point x="-50" y="538"/>
      <point x="-72" y="562"/>
      <point x="-77" y="587" type="curve" smooth="yes"/>
      <point x="-79" y="597"/>
      <point x="-82" y="608"/>
      <point x="-92" y="608" type="curve" smooth="yes"/>
      <point x="-102" y="608"/>
      <point x="-107" y="597"/>
      <point x="-107" y="584" type="curve" smooth="yes"/>
      <point x="-107" y="534"/>
      <point x="-70" y="478"/>
      <point x="0" y="478" type="curve" smooth="yes"/>
    </contour>
    <contour>
      <point x="0" y="440" type="move" name="_top"/>
    </contour>
  </outline>
</glyph>
<glyph name="uni030C" format="1">
  <advance width="0"/>
  <unicode hex="030C"/>
  <note>
    uni030C
  </note>
  <outline>
    <contour>
      <point x="8" y="455"/>
      <point x="15" y="465"/>
      <point x="20" y="473" type="curve" smooth="yes"/>
      <point x="40" y="504"/>
      <point x="108" y="622"/>
      <point x="108" y="635" type="curve" smooth="yes"/>
      <point x="108" y="644"/>
      <point x="108" y="648"/>
      <point x="99" y="648" type="curve" smooth="yes"/>
      <point x="91" y="648"/>
      <point x="78" y="635"/>
      <point x="70" y="626" type="curve" smooth="yes"/>
      <point x="57" y="611"/>
      <point x="26" y="571"/>
      <point x="4" y="541" type="curve" smooth="yes"/>
      <point x="1" y="537"/>
      <point x="0" y="537"/>
      <point x="-3" y="541" type="curve" smooth="yes"/>
      <point x="-25" y="571"/>
      <point x="-56" y="611"/>
      <point x="-69" y="626" type="curve" smooth="yes"/>
      <point x="-77" y="635"/>
      <point x="-91" y="648"/>
      <point x="-99" y="648" type="curve" smooth="yes"/>
      <point x="-108" y="648"/>
      <point x="-108" y="644"/>
      <point x="-108" y="635" type="curve" smooth="yes"/>
      <point x="-108" y="622"/>
      <point x="-40" y="504"/>
      <point x="-20" y="473" type="curve" smooth="yes"/>
      <point x="-15" y="465"/>
      <point x="-8" y="455"/>
      <point x="0" y="455" type="curve" smooth="yes"/>
    </contour>
    <contour>
      <point x="1" y="440" type="move" name="_top"/>
    </contour>
  </outline>
</glyph>
<glyph name="uni0324" format="1">
  <advance width="0"/>
  <unicode hex="0324"/>
  <note>
    uni0324
  </note>
  <outline>
    <component base="uni0308" xOffset="-1" yOffset="-665"/>
    <contour>
      <point x="0" y="-30" type="move" name="_bottom"/>
    </contour>
  </outline>
</glyph>
<glyph name="uni0329" format="1">
  <advance width="0"/>
  <unicode hex="0329"/>
  <note>
    uni0329
  </note>
  <outline>
    <contour>
      <point x="1" y="-250"/>
      <point x="20" y="-240"/>
      <point x="20" y="-226" type="curve" smooth="yes"/>
      <point x="20" y="-80" type="line" smooth="yes"/>
      <point x="20" y="-73"/>
      <point x="13" y="-67"/>
      <point x="6" y="-67" type="curve" smooth="yes"/>
      <point x="0" y="-67"/>
      <point x="-20" y="-82"/>
      <point x="-20" y="-98" type="curve" smooth="yes"/>
      <point x="-20" y="-236" type="line" smooth="yes"/>
      <point x="-20" y="-243"/>
      <point x="-14" y="-250"/>
      <point x="-8" y="-250" type="curve" smooth="yes"/>
    </contour>
  </outline>
</glyph>
<glyph name="uni032A" format="1">
  <advance width="0"/>
  <unicode hex="032A"/>
  <note>
    uni032A
  </note>
  <outline>
    <contour>
      <point x="-99" y="-250"/>
      <point x="-80" y="-240"/>
      <point x="-80" y="-226" type="curve" smooth="yes"/>
      <point x="-80" y="-181" type="line"/>
      <point x="80" y="-181" type="line"/>
      <point x="80" y="-236" type="line" smooth="yes"/>
      <point x="80" y="-243"/>
      <point x="86" y="-250"/>
      <point x="92" y="-250" type="curve" smooth="yes"/>
      <point x="101" y="-250"/>
      <point x="120" y="-240"/>
      <point x="120" y="-226" type="curve" smooth="yes"/>
      <point x="120" y="-151" type="line" smooth="yes"/>
      <point x="120" y="-145"/>
      <point x="113" y="-141"/>
      <point x="107" y="-141" type="curve" smooth="yes"/>
      <point x="-96" y="-141" type="line" smooth="yes"/>
      <point x="-111" y="-141"/>
      <point x="-120" y="-159"/>
      <point x="-120" y="-169" type="curve" smooth="yes"/>
      <point x="-120" y="-236" type="line" smooth="yes"/>
      <point x="-120" y="-243"/>
      <point x="-114" y="-250"/>
      <point x="-108" y="-250" type="curve" smooth="yes"/>
    </contour>
  </outline>
</glyph>
<glyph name="uni032F" format="1">
  <advance width="0"/>
  <unicode hex="032F"/>
  <note>
    uni032F
  </note>
  <outline>
    <component base="uni032E" yOffset="-300" yScale="-1"/>
    <contour>
      <point x="0" y="-30" type="move" name="_bottom"/>
    </contour>
  </outline>
</glyph>
<glyph name="phi" format="1">
  <advance width="537"/>
  <unicode hex="03C6"/>
  <note>
    phi
  </note>
  <outline>
    <contour>
      <point x="271" y="-285"/>
      <point x="270" y="-272"/>
      <point x="270" y="-260" type="curve" smooth="yes"/>
      <point x="270" y="-258"/>
      <point x="257" y="-159"/>
      <point x="254" y="-22" type="curve"/>
      <point x="398" y="-21"/>
      <point x="502" y="101"/>
      <point x="502" y="242" type="curve" smooth="yes"/>
      <point x="502" y="318"/>
      <point x="460" y="389"/>
      <point x="394" y="412" type="curve"/>
      <point x="402" y="441"/>
      <point x="370" y="469"/>
      <point x="327" y="469" type="curve" smooth="yes"/>
      <point x="171" y="469"/>
      <point x="35" y="360"/>
      <point x="35" y="204" type="curve" smooth="yes"/>
      <point x="35" y="98"/>
      <point x="114" y="1"/>
      <point x="215" y="-19" type="curve"/>
      <point x="213" y="-115"/>
      <point x="207" y="-221"/>
      <point x="207" y="-250" type="curve" smooth="yes"/>
      <point x="207" y="-272"/>
      <point x="231" y="-285"/>
      <point x="255" y="-285" type="curve" smooth="yes"/>
    </contour>
    <contour>
      <point x="133" y="61"/>
      <point x="74" y="108"/>
      <point x="74" y="179" type="curve" smooth="yes"/>
      <point x="74" y="291"/>
      <point x="168" y="366"/>
      <point x="277" y="386" type="curve"/>
      <point x="221" y="320"/>
      <point x="216" y="169"/>
      <point x="216" y="50" type="curve"/>
    </contour>
    <contour>
      <point x="254" y="141"/>
      <point x="266" y="342"/>
      <point x="365" y="342" type="curve" smooth="yes"/>
      <point x="425" y="342"/>
      <point x="462" y="282"/>
      <point x="462" y="222" type="curve" smooth="yes"/>
      <point x="462" y="116"/>
      <point x="358" y="48"/>
      <point x="253" y="48" type="curve"/>
    </contour>
  </outline>
</glyph>
<glyph name="uni03FB" format="1">
  <advance width="631"/>
  <unicode hex="03FB"/>
  <note>
    uni03FB
  </note>
  <outline>
    <contour>
      <point x="68" y="-281"/>
      <point x="87" y="-281"/>
      <point x="106" y="-281" type="curve"/>
      <point x="127" y="-281"/>
      <point x="148" y="-281"/>
      <point x="169" y="-281" type="curve" smooth="yes"/>
      <point x="180" y="-281"/>
      <point x="188" y="-278"/>
      <point x="188" y="-273" type="curve" smooth="yes"/>
      <point x="188" y="-268"/>
      <point x="182" y="-261"/>
      <point x="167" y="-259" type="curve" smooth="yes"/>
      <point x="138" y="-255"/>
      <point x="127" y="-246"/>
      <point x="130" y="-180" type="curve" smooth="yes"/>
      <point x="148" y="287" type="line" smooth="yes"/>
      <point x="148" y="296"/>
      <point x="151" y="300"/>
      <point x="155" y="292" type="curve" smooth="yes"/>
      <point x="209" y="184"/>
      <point x="274" y="35"/>
      <point x="292" y="-8" type="curve" smooth="yes"/>
      <point x="295" y="-15"/>
      <point x="297" y="-14"/>
      <point x="300" y="-8" type="curve" smooth="yes"/>
      <point x="451" y="296" type="line" smooth="yes"/>
      <point x="456" y="307"/>
      <point x="461" y="309"/>
      <point x="461" y="296" type="curve" smooth="yes"/>
      <point x="467" y="52" type="line" smooth="yes"/>
      <point x="468" y="24"/>
      <point x="459" y="19"/>
      <point x="434" y="16" type="curve" smooth="yes"/>
      <point x="419" y="14"/>
      <point x="412" y="7"/>
      <point x="412" y="2" type="curve" smooth="yes"/>
      <point x="412" y="-3"/>
      <point x="420" y="-6"/>
      <point x="431" y="-6" type="curve" smooth="yes"/>
      <point x="456" y="-6"/>
      <point x="482" y="-5"/>
      <point x="508" y="-5" type="curve" smooth="yes"/>
      <point x="532" y="-5"/>
      <point x="557" y="-6"/>
      <point x="582" y="-6" type="curve" smooth="yes"/>
      <point x="593" y="-6"/>
      <point x="601" y="-3"/>
      <point x="601" y="2" type="curve" smooth="yes"/>
      <point x="601" y="7"/>
      <point x="595" y="14"/>
      <point x="580" y="16" type="curve" smooth="yes"/>
      <point x="548" y="20"/>
      <point x="532" y="26"/>
      <point x="531" y="51" type="curve" smooth="yes"/>
      <point x="522" y="321" type="line" smooth="yes"/>
      <point x="521" y="346"/>
      <point x="539" y="354"/>
      <point x="568" y="363" type="curve" smooth="yes"/>
      <point x="581" y="367"/>
      <point x="585" y="370"/>
      <point x="585" y="378" type="curve" smooth="yes"/>
      <point x="585" y="385"/>
      <point x="571" y="387"/>
      <point x="569" y="387" type="curve" smooth="yes"/>
      <point x="471" y="387" type="line" smooth="yes"/>
      <point x="461" y="387"/>
      <point x="458" y="364"/>
      <point x="448" y="344" type="curve" smooth="yes"/>
      <point x="329" y="101" type="line"/>
      <point x="323" y="90"/>
      <point x="320" y="92"/>
      <point x="314" y="103" type="curve" smooth="yes"/>
      <point x="281" y="164"/>
      <point x="251" y="242"/>
      <point x="217" y="305" type="curve" smooth="yes"/>
      <point x="205" y="327"/>
      <point x="196" y="345"/>
      <point x="190" y="373" type="curve" smooth="yes"/>
      <point x="188" y="382"/>
      <point x="181" y="387"/>
      <point x="160" y="387" type="curve" smooth="yes"/>
      <point x="72" y="387" type="line" smooth="yes"/>
      <point x="63" y="387"/>
      <point x="57" y="384"/>
      <point x="57" y="378" type="curve" smooth="yes"/>
      <point x="57" y="373"/>
      <point x="58" y="368"/>
      <point x="75" y="362" type="curve" smooth="yes"/>
      <point x="111" y="349"/>
      <point x="119" y="341"/>
      <point x="118" y="312" type="curve" smooth="yes"/>
      <point x="96" y="-179" type="line" smooth="yes"/>
      <point x="93" y="-242"/>
      <point x="74" y="-255"/>
      <point x="52" y="-259" type="curve" smooth="yes"/>
      <point x="37" y="-262"/>
      <point x="30" y="-268"/>
      <point x="30" y="-273" type="curve" smooth="yes"/>
      <point x="30" y="-278"/>
      <point x="38" y="-281"/>
      <point x="49" y="-281" type="curve" smooth="yes"/>
    </contour>
  </outline>
</glyph>
<glyph name="uni0414" format="1">
  <advance width="700"/>
  <unicode hex="0414"/>
  <note>
    uni0414
  </note>
  <outline>
    <contour>
      <point x="90" y="-206"/>
      <point x="89" y="-183"/>
      <point x="90" y="-163" type="curve" smooth="yes"/>
      <point x="96" y="-41"/>
      <point x="110" y="0"/>
      <point x="184" y="0" type="curve" smooth="yes"/>
      <point x="540" y="0" type="line" smooth="yes"/>
      <point x="614" y="0"/>
      <point x="627" y="-40"/>
      <point x="635" y="-162" type="curve" smooth="yes"/>
      <point x="636" y="-182"/>
      <point x="634" y="-205"/>
      <point x="653" y="-205" type="curve" smooth="yes"/>
      <point x="669" y="-205"/>
      <point x="676" y="-190"/>
      <point x="677" y="-174" type="curve" smooth="yes"/>
      <point x="681" y="-80"/>
      <point x="696" y="-3"/>
      <point x="696" y="22" type="curve" smooth="yes"/>
      <point x="696" y="30"/>
      <point x="696" y="40"/>
      <point x="685" y="40" type="curve"/>
      <point x="657" y="41"/>
      <point x="576" y="39"/>
      <point x="576" y="72" type="curve" smooth="yes"/>
      <point x="576" y="550" type="line" smooth="yes"/>
      <point x="576" y="596"/>
      <point x="601" y="613"/>
      <point x="651" y="622" type="curve" smooth="yes"/>
      <point x="674" y="626"/>
      <point x="684" y="633"/>
      <point x="684" y="642" type="curve" smooth="yes"/>
      <point x="684" y="650"/>
      <point x="672" y="653"/>
      <point x="655" y="653" type="curve" smooth="yes"/>
      <point x="601" y="653"/>
      <point x="586" y="650"/>
      <point x="542" y="650" type="curve" smooth="yes"/>
      <point x="449" y="649"/>
      <point x="368" y="649"/>
      <point x="274" y="649" type="curve" smooth="yes"/>
      <point x="237" y="649"/>
      <point x="199" y="653"/>
      <point x="179" y="653" type="curve" smooth="yes"/>
      <point x="162" y="653"/>
      <point x="150" y="650"/>
      <point x="150" y="642" type="curve" smooth="yes"/>
      <point x="150" y="633"/>
      <point x="160" y="626"/>
      <point x="183" y="622" type="curve" smooth="yes"/>
      <point x="233" y="613"/>
      <point x="247" y="595"/>
      <point x="247" y="557" type="curve" smooth="yes"/>
      <point x="247" y="182"/>
      <point x="153" y="43"/>
      <point x="41" y="40" type="curve" smooth="yes"/>
      <point x="31" y="40"/>
      <point x="26" y="31"/>
      <point x="26" y="23" type="curve" smooth="yes"/>
      <point x="26" y="-31"/>
      <point x="43" y="-80"/>
      <point x="47" y="-175" type="curve" smooth="yes"/>
      <point x="48" y="-191"/>
      <point x="55" y="-206"/>
      <point x="71" y="-206" type="curve" smooth="yes"/>
    </contour>
    <contour>
      <point x="164" y="36"/>
      <point x="144" y="37"/>
      <point x="161" y="54" type="curve" smooth="yes"/>
      <point x="227" y="120"/>
      <point x="286" y="252"/>
      <point x="286" y="570" type="curve" smooth="yes"/>
      <point x="286" y="602"/>
      <point x="294" y="614"/>
      <point x="315" y="614" type="curve" smooth="yes"/>
      <point x="464" y="614" type="line" smooth="yes"/>
      <point x="489" y="614"/>
      <point x="496" y="592"/>
      <point x="496" y="558" type="curve" smooth="yes"/>
      <point x="496" y="68" type="line" smooth="yes"/>
      <point x="496" y="46"/>
      <point x="491" y="36"/>
      <point x="461" y="36" type="curve" smooth="yes"/>
      <point x="179" y="36" type="line" smooth="yes"/>
    </contour>
  </outline>
</glyph>
<glyph name="uni041B" format="1">
  <advance width="728"/>
  <unicode hex="041B"/>
  <note>
    uni041B
  </note>
  <outline>
    <contour>
      <point x="152" y="-14"/>
      <point x="293" y="54"/>
      <point x="293" y="567" type="curve" smooth="yes"/>
      <point x="293" y="599"/>
      <point x="301" y="611"/>
      <point x="322" y="611" type="curve" smooth="yes"/>
      <point x="464" y="611" type="line" smooth="yes"/>
      <point x="489" y="611"/>
      <point x="496" y="589"/>
      <point x="496" y="555" type="curve" smooth="yes"/>
      <point x="496" y="99" type="line" smooth="yes"/>
      <point x="496" y="57"/>
      <point x="468" y="33"/>
      <point x="418" y="24" type="curve" smooth="yes"/>
      <point x="395" y="20"/>
      <point x="385" y="15"/>
      <point x="385" y="6" type="curve" smooth="yes"/>
      <point x="385" y="-2"/>
      <point x="397" y="-5"/>
      <point x="414" y="-5" type="curve" smooth="yes"/>
      <point x="468" y="-5"/>
      <point x="492" y="0"/>
      <point x="542" y="0" type="curve" smooth="yes"/>
      <point x="588" y="0"/>
      <point x="605" y="-5"/>
      <point x="659" y="-5" type="curve" smooth="yes"/>
      <point x="676" y="-5"/>
      <point x="688" y="-2"/>
      <point x="688" y="6" type="curve" smooth="yes"/>
      <point x="688" y="15"/>
      <point x="678" y="20"/>
      <point x="655" y="24" type="curve" smooth="yes"/>
      <point x="605" y="33"/>
      <point x="576" y="51"/>
      <point x="576" y="98" type="curve" smooth="yes"/>
      <point x="576" y="550" type="line" smooth="yes"/>
      <point x="576" y="597"/>
      <point x="597" y="613"/>
      <point x="647" y="622" type="curve" smooth="yes"/>
      <point x="670" y="626"/>
      <point x="680" y="633"/>
      <point x="680" y="642" type="curve" smooth="yes"/>
      <point x="680" y="650"/>
      <point x="668" y="653"/>
      <point x="651" y="653" type="curve" smooth="yes"/>
      <point x="597" y="653"/>
      <point x="585" y="650"/>
      <point x="542" y="650" type="curve" smooth="yes"/>
      <point x="449" y="649"/>
      <point x="369" y="649"/>
      <point x="275" y="649" type="curve" smooth="yes"/>
      <point x="238" y="649"/>
      <point x="200" y="653"/>
      <point x="180" y="653" type="curve" smooth="yes"/>
      <point x="163" y="653"/>
      <point x="151" y="650"/>
      <point x="151" y="642" type="curve" smooth="yes"/>
      <point x="151" y="633"/>
      <point x="161" y="626"/>
      <point x="184" y="622" type="curve" smooth="yes"/>
      <point x="234" y="613"/>
      <point x="248" y="595"/>
      <point x="248" y="557" type="curve" smooth="yes"/>
      <point x="248" y="192"/>
      <point x="196" y="74"/>
      <point x="129" y="74" type="curve" smooth="yes"/>
      <point x="96" y="74"/>
      <point x="62" y="81"/>
      <point x="47" y="86" type="curve"/>
      <point x="35" y="86"/>
      <point x="22" y="71"/>
      <point x="22" y="44" type="curve" smooth="yes"/>
      <point x="22" y="11"/>
      <point x="46" y="-14"/>
      <point x="93" y="-14" type="curve" smooth="yes"/>
    </contour>
  </outline>
</glyph>
<glyph name="uni042B" format="1">
  <advance width="875"/>
  <unicode hex="042B"/>
  <note>
    uni042B
  </note>
  <outline>
    <component base="uni042C"/>
    <component base="I" xOffset="535"/>
    <contour>
      <point x="437" y="675" type="move" name="top.cap"/>
    </contour>
  </outline>
</glyph>
<glyph name="uni0431" format="1">
  <advance width="468"/>
  <unicode hex="0431"/>
  <note>
    uni0431
  </note>
  <outline>
    <contour>
      <point x="368" y="-15"/>
      <point x="433" y="96"/>
      <point x="433" y="213" type="curve" smooth="yes"/>
      <point x="433" y="316"/>
      <point x="366" y="414"/>
      <point x="248" y="414" type="curve" smooth="yes"/>
      <point x="189" y="414"/>
      <point x="150" y="398"/>
      <point x="123" y="377" type="curve" smooth="yes"/>
      <point x="114" y="370"/>
      <point x="104" y="370"/>
      <point x="104" y="381" type="curve" smooth="yes"/>
      <point x="104" y="500"/>
      <point x="138" y="550"/>
      <point x="213" y="564" type="curve" smooth="yes"/>
      <point x="347" y="590" type="line" smooth="yes"/>
      <point x="405" y="601"/>
      <point x="425" y="650"/>
      <point x="425" y="690" type="curve" smooth="yes"/>
      <point x="425" y="694"/>
      <point x="423" y="701"/>
      <point x="419" y="701" type="curve" smooth="yes"/>
      <point x="418" y="701"/>
      <point x="416" y="701"/>
      <point x="415" y="700" type="curve"/>
      <point x="395" y="686"/>
      <point x="375" y="672"/>
      <point x="321" y="662" type="curve" smooth="yes"/>
      <point x="278" y="654" type="line" smooth="yes"/>
      <point x="93" y="618"/>
      <point x="35" y="447"/>
      <point x="35" y="241" type="curve" smooth="yes"/>
      <point x="36" y="108"/>
      <point x="93" y="-15"/>
      <point x="229" y="-15" type="curve" smooth="yes"/>
    </contour>
    <contour>
      <point x="160" y="16"/>
      <point x="115" y="105"/>
      <point x="114" y="228" type="curve" smooth="yes"/>
      <point x="114" y="281"/>
      <point x="121" y="319"/>
      <point x="141" y="345" type="curve" smooth="yes"/>
      <point x="161" y="371"/>
      <point x="196" y="383"/>
      <point x="231" y="383" type="curve" smooth="yes"/>
      <point x="306" y="383"/>
      <point x="351" y="291"/>
      <point x="351" y="200" type="curve" smooth="yes"/>
      <point x="351" y="95"/>
      <point x="329" y="16"/>
      <point x="239" y="16" type="curve" smooth="yes"/>
    </contour>
  </outline>
</glyph>
<glyph name="uni043B" format="1">
  <advance width="460"/>
  <unicode hex="043B"/>
  <note>
    uni043B
  </note>
  <outline>
    <contour>
      <point x="144" y="-14"/>
      <point x="181" y="190"/>
      <point x="181" y="330" type="curve" smooth="yes"/>
      <point x="181" y="341"/>
      <point x="181" y="368"/>
      <point x="198" y="368" type="curve" smooth="yes"/>
      <point x="287" y="368" type="line" smooth="yes"/>
      <point x="303" y="368"/>
      <point x="303" y="341"/>
      <point x="303" y="330" type="curve" smooth="yes"/>
      <point x="303" y="62" type="line" smooth="yes"/>
      <point x="303" y="35"/>
      <point x="282" y="30"/>
      <point x="262" y="24" type="curve"/>
      <point x="251" y="20"/>
      <point x="239" y="16"/>
      <point x="239" y="6" type="curve" smooth="yes"/>
      <point x="239" y="-2"/>
      <point x="251" y="-3"/>
      <point x="259" y="-3" type="curve" smooth="yes"/>
      <point x="297" y="-3"/>
      <point x="301" y="2"/>
      <point x="336" y="2" type="curve" smooth="yes"/>
      <point x="371" y="2"/>
      <point x="373" y="-3"/>
      <point x="412" y="-3" type="curve" smooth="yes"/>
      <point x="420" y="-3"/>
      <point x="432" y="-2"/>
      <point x="432" y="6" type="curve" smooth="yes"/>
      <point x="432" y="16"/>
      <point x="420" y="20"/>
      <point x="409" y="24" type="curve"/>
      <point x="389" y="30"/>
      <point x="373" y="35"/>
      <point x="373" y="62" type="curve" smooth="yes"/>
      <point x="373" y="300" type="line" smooth="yes"/>
      <point x="373" y="354"/>
      <point x="386" y="362"/>
      <point x="419" y="369" type="curve"/>
      <point x="425" y="370"/>
      <point x="436" y="378"/>
      <point x="436" y="388" type="curve" smooth="yes"/>
      <point x="436" y="396"/>
      <point x="418" y="403"/>
      <point x="414" y="403" type="curve" smooth="yes"/>
      <point x="389" y="403"/>
      <point x="382" y="400"/>
      <point x="356" y="400" type="curve" smooth="yes"/>
      <point x="147" y="400" type="line" smooth="yes"/>
      <point x="124" y="400"/>
      <point x="118" y="403"/>
      <point x="93" y="403" type="curve" smooth="yes"/>
      <point x="89" y="403"/>
      <point x="71" y="396"/>
      <point x="71" y="388" type="curve" smooth="yes"/>
      <point x="71" y="378"/>
      <point x="82" y="370"/>
      <point x="88" y="369" type="curve" smooth="yes"/>
      <point x="126" y="363"/>
      <point x="145" y="359"/>
      <point x="145" y="320" type="curve" smooth="yes"/>
      <point x="145" y="212"/>
      <point x="117" y="49"/>
      <point x="77" y="49" type="curve" smooth="yes"/>
      <point x="69" y="49"/>
      <point x="63" y="54"/>
      <point x="57" y="60" type="curve" smooth="yes"/>
      <point x="48" y="68"/>
      <point x="39" y="78"/>
      <point x="23" y="78" type="curve" smooth="yes"/>
      <point x="-3" y="78"/>
      <point x="-19" y="58"/>
      <point x="-19" y="36" type="curve" smooth="yes"/>
      <point x="-19" y="12"/>
      <point x="2" y="-14"/>
      <point x="54" y="-14" type="curve" smooth="yes"/>
    </contour>
  </outline>
</glyph>
<glyph name="uni0449" format="1">
  <advance width="698"/>
  <unicode hex="0449"/>
  <note>
    uni0449
  </note>
  <outline>
    <contour>
      <point x="657" y="-139"/>
      <point x="669" y="-124"/>
      <point x="670" y="-108" type="curve" smooth="yes"/>
      <point x="674" y="-14"/>
      <point x="689" y="8"/>
      <point x="697" y="28" type="curve"/>
      <point x="698" y="30"/>
      <point x="698" y="32"/>
      <point x="698" y="34" type="curve" smooth="yes"/>
      <point x="698" y="41"/>
      <point x="691" y="42"/>
      <point x="683" y="42" type="curve" smooth="yes"/>
      <point x="674" y="42"/>
      <point x="662" y="40"/>
      <point x="654" y="40" type="curve" smooth="yes"/>
      <point x="635" y="40"/>
      <point x="608" y="43"/>
      <point x="608" y="53" type="curve" smooth="yes"/>
      <point x="608" y="338" type="line" smooth="yes"/>
      <point x="608" y="365"/>
      <point x="624" y="370"/>
      <point x="644" y="376" type="curve"/>
      <point x="655" y="380"/>
      <point x="667" y="384"/>
      <point x="667" y="394" type="curve" smooth="yes"/>
      <point x="667" y="403"/>
      <point x="653" y="403"/>
      <point x="644" y="403" type="curve" smooth="yes"/>
      <point x="605" y="403"/>
      <point x="606" y="398"/>
      <point x="571" y="398" type="curve" smooth="yes"/>
      <point x="536" y="398"/>
      <point x="536" y="403"/>
      <point x="497" y="403" type="curve" smooth="yes"/>
      <point x="489" y="403"/>
      <point x="474" y="403"/>
      <point x="474" y="394" type="curve" smooth="yes"/>
      <point x="474" y="384"/>
      <point x="486" y="380"/>
      <point x="497" y="376" type="curve"/>
      <point x="517" y="370"/>
      <point x="538" y="365"/>
      <point x="538" y="338" type="curve" smooth="yes"/>
      <point x="538" y="77" type="line" smooth="yes"/>
      <point x="538" y="66"/>
      <point x="538" y="39"/>
      <point x="521" y="39" type="curve" smooth="yes"/>
      <point x="399" y="39" type="line" smooth="yes"/>
      <point x="383" y="39"/>
      <point x="383" y="66"/>
      <point x="383" y="77" type="curve" smooth="yes"/>
      <point x="383" y="338" type="line" smooth="yes"/>
      <point x="383" y="365"/>
      <point x="399" y="370"/>
      <point x="419" y="376" type="curve"/>
      <point x="430" y="380"/>
      <point x="442" y="384"/>
      <point x="442" y="394" type="curve" smooth="yes"/>
      <point x="442" y="403"/>
      <point x="427" y="403"/>
      <point x="419" y="403" type="curve" smooth="yes"/>
      <point x="380" y="403"/>
      <point x="381" y="398"/>
      <point x="346" y="398" type="curve" smooth="yes"/>
      <point x="311" y="398"/>
      <point x="311" y="403"/>
      <point x="272" y="403" type="curve" smooth="yes"/>
      <point x="263" y="403"/>
      <point x="249" y="403"/>
      <point x="249" y="394" type="curve" smooth="yes"/>
      <point x="249" y="384"/>
      <point x="261" y="380"/>
      <point x="272" y="376" type="curve"/>
      <point x="292" y="370"/>
      <point x="313" y="365"/>
      <point x="313" y="338" type="curve" smooth="yes"/>
      <point x="313" y="77" type="line" smooth="yes"/>
      <point x="313" y="66"/>
      <point x="313" y="39"/>
      <point x="297" y="39" type="curve" smooth="yes"/>
      <point x="170" y="39" type="line" smooth="yes"/>
      <point x="153" y="39"/>
      <point x="153" y="66"/>
      <point x="153" y="77" type="curve" smooth="yes"/>
      <point x="153" y="338" type="line" smooth="yes"/>
      <point x="153" y="365"/>
      <point x="174" y="370"/>
      <point x="194" y="376" type="curve"/>
      <point x="205" y="380"/>
      <point x="217" y="384"/>
      <point x="217" y="394" type="curve" smooth="yes"/>
      <point x="217" y="403"/>
      <point x="203" y="403"/>
      <point x="194" y="403" type="curve" smooth="yes"/>
      <point x="155" y="403"/>
      <point x="156" y="398"/>
      <point x="121" y="398" type="curve" smooth="yes"/>
      <point x="86" y="398"/>
      <point x="86" y="403"/>
      <point x="47" y="403" type="curve" smooth="yes"/>
      <point x="39" y="403"/>
      <point x="24" y="403"/>
      <point x="24" y="394" type="curve" smooth="yes"/>
      <point x="24" y="384"/>
      <point x="36" y="380"/>
      <point x="47" y="376" type="curve"/>
      <point x="67" y="370"/>
      <point x="83" y="365"/>
      <point x="83" y="338" type="curve" smooth="yes"/>
      <point x="83" y="62" type="line" smooth="yes"/>
      <point x="83" y="35"/>
      <point x="67" y="30"/>
      <point x="47" y="24" type="curve"/>
      <point x="36" y="20"/>
      <point x="24" y="16"/>
      <point x="24" y="6" type="curve" smooth="yes"/>
      <point x="24" y="-4"/>
      <point x="42" y="-3"/>
      <point x="47" y="-3" type="curve" smooth="yes"/>
      <point x="86" y="-3"/>
      <point x="77" y="0"/>
      <point x="100" y="0" type="curve" smooth="yes"/>
      <point x="602" y="0" type="line" smooth="yes"/>
      <point x="621" y="0"/>
      <point x="630" y="-5"/>
      <point x="630" y="-59" type="curve" smooth="yes"/>
      <point x="630" y="-69"/>
      <point x="629" y="-83"/>
      <point x="629" y="-97" type="curve" smooth="yes"/>
      <point x="629" y="-119"/>
      <point x="632" y="-139"/>
      <point x="650" y="-139" type="curve" smooth="yes"/>
    </contour>
  </outline>
</glyph>
<glyph name="uni044A" format="1">
  <advance width="452"/>
  <unicode hex="044A"/>
  <note>
    uni044A
  </note>
  <outline>
    <contour>
      <point x="134" y="-3"/>
      <point x="138" y="2"/>
      <point x="173" y="2" type="curve" smooth="yes"/>
      <point x="208" y="2"/>
      <point x="212" y="-3"/>
      <point x="251" y="-3" type="curve" smooth="yes"/>
      <point x="344" y="-3"/>
      <point x="422" y="25"/>
      <point x="422" y="131" type="curve" smooth="yes"/>
      <point x="422" y="211"/>
      <point x="328" y="238"/>
      <point x="284" y="238" type="curve" smooth="yes"/>
      <point x="265" y="238"/>
      <point x="229" y="236"/>
      <point x="217" y="230" type="curve" smooth="yes"/>
      <point x="213" y="228"/>
      <point x="207" y="231"/>
      <point x="207" y="236" type="curve" smooth="yes"/>
      <point x="207" y="337" type="line" smooth="yes"/>
      <point x="207" y="364"/>
      <point x="225" y="370"/>
      <point x="245" y="376" type="curve"/>
      <point x="256" y="380"/>
      <point x="268" y="384"/>
      <point x="268" y="394" type="curve" smooth="yes"/>
      <point x="268" y="402"/>
      <point x="252" y="403"/>
      <point x="244" y="403" type="curve" smooth="yes"/>
      <point x="206" y="403"/>
      <point x="205" y="401"/>
      <point x="170" y="401" type="curve" smooth="yes"/>
      <point x="90" y="401" type="line" smooth="yes"/>
      <point x="72" y="401"/>
      <point x="60" y="402"/>
      <point x="54" y="407" type="curve" smooth="yes"/>
      <point x="48" y="412"/>
      <point x="42" y="416"/>
      <point x="39" y="416" type="curve" smooth="yes"/>
      <point x="35" y="416"/>
      <point x="24" y="408"/>
      <point x="24" y="398" type="curve" smooth="yes"/>
      <point x="24" y="373"/>
      <point x="16" y="327"/>
      <point x="11" y="308" type="curve"/>
      <point x="10" y="305"/>
      <point x="10" y="301"/>
      <point x="10" y="297" type="curve" smooth="yes"/>
      <point x="10" y="291"/>
      <point x="11" y="286"/>
      <point x="17" y="286" type="curve" smooth="yes"/>
      <point x="27" y="286"/>
      <point x="40" y="304"/>
      <point x="44" y="311" type="curve" smooth="yes"/>
      <point x="66" y="352"/>
      <point x="73" y="369"/>
      <point x="102" y="369" type="curve" smooth="yes"/>
      <point x="116" y="369" type="line" smooth="yes"/>
      <point x="136" y="369"/>
      <point x="137" y="365"/>
      <point x="137" y="350" type="curve" smooth="yes"/>
      <point x="137" y="63" type="line" smooth="yes"/>
      <point x="137" y="35"/>
      <point x="115" y="30"/>
      <point x="95" y="24" type="curve"/>
      <point x="84" y="20"/>
      <point x="72" y="16"/>
      <point x="72" y="6" type="curve" smooth="yes"/>
      <point x="72" y="-2"/>
      <point x="88" y="-3"/>
      <point x="96" y="-3" type="curve" smooth="yes"/>
    </contour>
    <contour>
      <point x="235" y="25"/>
      <point x="207" y="45"/>
      <point x="207" y="73" type="curve" smooth="yes"/>
      <point x="207" y="177" type="line" smooth="yes"/>
      <point x="207" y="182"/>
      <point x="206" y="196"/>
      <point x="216" y="203" type="curve" smooth="yes"/>
      <point x="222" y="207"/>
      <point x="238" y="210"/>
      <point x="254" y="210" type="curve" smooth="yes"/>
      <point x="318" y="210"/>
      <point x="349" y="180"/>
      <point x="349" y="114" type="curve" smooth="yes"/>
      <point x="349" y="66"/>
      <point x="304" y="25"/>
      <point x="254" y="25" type="curve" smooth="yes"/>
    </contour>
  </outline>
</glyph>
<glyph name="uni0459" format="1">
  <advance width="598"/>
  <unicode hex="0459"/>
  <note>
    uni0459
  </note>
  <outline>
    <contour>
      <point x="126" y="-14"/>
      <point x="161" y="194"/>
      <point x="161" y="330" type="curve" smooth="yes"/>
      <point x="161" y="341"/>
      <point x="161" y="368"/>
      <point x="178" y="368" type="curve" smooth="yes"/>
      <point x="267" y="368" type="line" smooth="yes"/>
      <point x="283" y="368"/>
      <point x="283" y="341"/>
      <point x="283" y="330" type="curve" smooth="yes"/>
      <point x="283" y="62" type="line" smooth="yes"/>
      <point x="283" y="35"/>
      <point x="262" y="30"/>
      <point x="242" y="24" type="curve"/>
      <point x="231" y="20"/>
      <point x="219" y="16"/>
      <point x="219" y="6" type="curve" smooth="yes"/>
      <point x="219" y="-2"/>
      <point x="231" y="-3"/>
      <point x="239" y="-3" type="curve" smooth="yes"/>
      <point x="277" y="-3"/>
      <point x="283" y="2"/>
      <point x="319" y="2" type="curve" smooth="yes"/>
      <point x="354" y="2"/>
      <point x="357" y="-3"/>
      <point x="397" y="-3" type="curve" smooth="yes"/>
      <point x="490" y="-3"/>
      <point x="568" y="21"/>
      <point x="568" y="127" type="curve" smooth="yes"/>
      <point x="568" y="207"/>
      <point x="474" y="231"/>
      <point x="430" y="231" type="curve" smooth="yes"/>
      <point x="411" y="231"/>
      <point x="375" y="229"/>
      <point x="363" y="223" type="curve" smooth="yes"/>
      <point x="359" y="221"/>
      <point x="353" y="224"/>
      <point x="353" y="229" type="curve" smooth="yes"/>
      <point x="353" y="300" type="line" smooth="yes"/>
      <point x="353" y="338"/>
      <point x="366" y="362"/>
      <point x="399" y="369" type="curve"/>
      <point x="405" y="370"/>
      <point x="416" y="378"/>
      <point x="416" y="388" type="curve" smooth="yes"/>
      <point x="416" y="396"/>
      <point x="398" y="403"/>
      <point x="394" y="403" type="curve" smooth="yes"/>
      <point x="369" y="403"/>
      <point x="362" y="400"/>
      <point x="336" y="400" type="curve" smooth="yes"/>
      <point x="127" y="400" type="line" smooth="yes"/>
      <point x="104" y="400"/>
      <point x="98" y="403"/>
      <point x="73" y="403" type="curve" smooth="yes"/>
      <point x="69" y="403"/>
      <point x="51" y="396"/>
      <point x="51" y="388" type="curve" smooth="yes"/>
      <point x="51" y="378"/>
      <point x="62" y="370"/>
      <point x="68" y="369" type="curve"/>
      <point x="101" y="362"/>
      <point x="121" y="358"/>
      <point x="121" y="319" type="curve" smooth="yes"/>
      <point x="121" y="220"/>
      <point x="107" y="61"/>
      <point x="56" y="61" type="curve" smooth="yes"/>
      <point x="49" y="61"/>
      <point x="44" y="66"/>
      <point x="40" y="71" type="curve" smooth="yes"/>
      <point x="35" y="76"/>
      <point x="30" y="81"/>
      <point x="22" y="81" type="curve" smooth="yes"/>
      <point x="3" y="81"/>
      <point x="-19" y="54"/>
      <point x="-19" y="28" type="curve" smooth="yes"/>
      <point x="-19" y="6"/>
      <point x="1" y="-14"/>
      <point x="24" y="-14" type="curve" smooth="yes"/>
    </contour>
    <contour>
      <point x="381" y="25"/>
      <point x="353" y="45"/>
      <point x="353" y="73" type="curve" smooth="yes"/>
      <point x="353" y="170" type="line" smooth="yes"/>
      <point x="353" y="175"/>
      <point x="352" y="189"/>
      <point x="362" y="196" type="curve" smooth="yes"/>
      <point x="368" y="200"/>
      <point x="384" y="203"/>
      <point x="400" y="203" type="curve" smooth="yes"/>
      <point x="464" y="203"/>
      <point x="495" y="176"/>
      <point x="495" y="110" type="curve" smooth="yes"/>
      <point x="495" y="55"/>
      <point x="457" y="25"/>
      <point x="400" y="25" type="curve" smooth="yes"/>
    </contour>
  </outline>
</glyph>
<glyph name="uni0463" format="1">
  <advance width="468"/>
  <unicode hex="0463"/>
  <note>
    uni0463
  </note>
  <outline>
    <contour>
      <point x="150" y="-3"/>
      <point x="154" y="2"/>
      <point x="189" y="2" type="curve" smooth="yes"/>
      <point x="224" y="2"/>
      <point x="228" y="-3"/>
      <point x="267" y="-3" type="curve" smooth="yes"/>
      <point x="360" y="-3"/>
      <point x="438" y="25"/>
      <point x="438" y="131" type="curve" smooth="yes"/>
      <point x="438" y="211"/>
      <point x="344" y="238"/>
      <point x="300" y="238" type="curve" smooth="yes"/>
      <point x="281" y="238"/>
      <point x="245" y="236"/>
      <point x="233" y="230" type="curve" smooth="yes"/>
      <point x="229" y="228"/>
      <point x="223" y="231"/>
      <point x="223" y="237" type="curve" smooth="yes"/>
      <point x="223" y="345" type="line"/>
      <point x="224" y="354"/>
      <point x="228" y="362"/>
      <point x="238" y="362" type="curve" smooth="yes"/>
      <point x="312" y="362" type="line" smooth="yes"/>
      <point x="330" y="362"/>
      <point x="346" y="332"/>
      <point x="348" y="309" type="curve"/>
      <point x="349" y="301"/>
      <point x="355" y="284"/>
      <point x="365" y="284" type="curve" smooth="yes"/>
      <point x="374" y="284"/>
      <point x="379" y="297"/>
      <point x="378" y="306" type="curve"/>
      <point x="377" y="320"/>
      <point x="376" y="336"/>
      <point x="376" y="352" type="curve" smooth="yes"/>
      <point x="376" y="368"/>
      <point x="377" y="384"/>
      <point x="380" y="396" type="curve"/>
      <point x="382" y="406"/>
      <point x="373" y="414"/>
      <point x="369" y="414" type="curve" smooth="yes"/>
      <point x="366" y="414"/>
      <point x="356" y="410"/>
      <point x="350" y="405" type="curve" smooth="yes"/>
      <point x="345" y="401"/>
      <point x="324" y="400"/>
      <point x="307" y="400" type="curve" smooth="yes"/>
      <point x="237" y="400" type="line" smooth="yes"/>
      <point x="230" y="400"/>
      <point x="224" y="405"/>
      <point x="224" y="417" type="curve" smooth="yes"/>
      <point x="224" y="459" type="line" smooth="yes"/>
      <point x="224" y="549"/>
      <point x="230" y="583"/>
      <point x="230" y="595" type="curve" smooth="yes"/>
      <point x="230" y="598"/>
      <point x="227" y="602"/>
      <point x="224" y="602" type="curve" smooth="yes"/>
      <point x="223" y="602"/>
      <point x="223" y="601"/>
      <point x="222" y="601" type="curve"/>
      <point x="190" y="589"/>
      <point x="157" y="573"/>
      <point x="106" y="561" type="curve" smooth="yes"/>
      <point x="102" y="560"/>
      <point x="99" y="555"/>
      <point x="99" y="549" type="curve" smooth="yes"/>
      <point x="99" y="543"/>
      <point x="102" y="537"/>
      <point x="107" y="536" type="curve" smooth="yes"/>
      <point x="140" y="529"/>
      <point x="153" y="502"/>
      <point x="153" y="463" type="curve" smooth="yes"/>
      <point x="153" y="412" type="line" smooth="yes"/>
      <point x="153" y="404"/>
      <point x="150" y="400"/>
      <point x="144" y="400" type="curve" smooth="yes"/>
      <point x="97" y="400" type="line" smooth="yes"/>
      <point x="80" y="400"/>
      <point x="59" y="401"/>
      <point x="54" y="405" type="curve" smooth="yes"/>
      <point x="48" y="410"/>
      <point x="42" y="414"/>
      <point x="39" y="414" type="curve" smooth="yes"/>
      <point x="35" y="414"/>
      <point x="24" y="406"/>
      <point x="24" y="396" type="curve" smooth="yes"/>
      <point x="24" y="371"/>
      <point x="17" y="324"/>
      <point x="12" y="306" type="curve"/>
      <point x="11" y="303"/>
      <point x="11" y="299"/>
      <point x="11" y="295" type="curve" smooth="yes"/>
      <point x="11" y="289"/>
      <point x="12" y="284"/>
      <point x="18" y="284" type="curve" smooth="yes"/>
      <point x="28" y="284"/>
      <point x="40" y="302"/>
      <point x="43" y="309" type="curve" smooth="yes"/>
      <point x="56" y="341"/>
      <point x="65" y="362"/>
      <point x="83" y="362" type="curve" smooth="yes"/>
      <point x="141" y="362" type="line" smooth="yes"/>
      <point x="152" y="362"/>
      <point x="153" y="342"/>
      <point x="153" y="330" type="curve" smooth="yes"/>
      <point x="153" y="63" type="line" smooth="yes"/>
      <point x="153" y="35"/>
      <point x="131" y="30"/>
      <point x="111" y="24" type="curve"/>
      <point x="100" y="20"/>
      <point x="88" y="16"/>
      <point x="88" y="6" type="curve" smooth="yes"/>
      <point x="88" y="-2"/>
      <point x="105" y="-3"/>
      <point x="112" y="-3" type="curve" smooth="yes"/>
    </contour>
    <contour>
      <point x="251" y="25"/>
      <point x="223" y="45"/>
      <point x="223" y="73" type="curve" smooth="yes"/>
      <point x="223" y="177" type="line" smooth="yes"/>
      <point x="223" y="182"/>
      <point x="222" y="196"/>
      <point x="232" y="203" type="curve" smooth="yes"/>
      <point x="238" y="207"/>
      <point x="254" y="210"/>
      <point x="270" y="210" type="curve" smooth="yes"/>
      <point x="334" y="210"/>
      <point x="365" y="180"/>
      <point x="365" y="114" type="curve" smooth="yes"/>
      <point x="365" y="66"/>
      <point x="320" y="25"/>
      <point x="270" y="25" type="curve" smooth="yes"/>
    </contour>
  </outline>
</glyph>
<glyph name="Yusbig-cy" format="1">
  <advance width="982"/>
  <unicode hex="046A"/>
  <outline>
    <contour>
      <point x="141" y="-18"/>
      <point x="191" y="53"/>
      <point x="236" y="128" type="curve" smooth="yes"/>
      <point x="276" y="193"/>
      <point x="312" y="261"/>
      <point x="343" y="291" type="curve" smooth="yes"/>
      <point x="364" y="312"/>
      <point x="368" y="327"/>
      <point x="441" y="327" type="curve" smooth="yes"/>
      <point x="449" y="327"/>
      <point x="451" y="316"/>
      <point x="451" y="310" type="curve" smooth="yes"/>
      <point x="451" y="99" type="line" smooth="yes"/>
      <point x="451" y="51"/>
      <point x="423" y="33"/>
      <point x="373" y="24" type="curve" smooth="yes"/>
      <point x="350" y="20"/>
      <point x="340" y="15"/>
      <point x="340" y="6" type="curve" smooth="yes"/>
      <point x="340" y="-2"/>
      <point x="352" y="-5"/>
      <point x="369" y="-5" type="curve" smooth="yes"/>
      <point x="423" y="-5"/>
      <point x="447" y="0"/>
      <point x="497" y="0" type="curve" smooth="yes"/>
      <point x="543" y="0"/>
      <point x="560" y="-5"/>
      <point x="614" y="-5" type="curve" smooth="yes"/>
      <point x="631" y="-5"/>
      <point x="643" y="-2"/>
      <point x="643" y="6" type="curve" smooth="yes"/>
      <point x="643" y="15"/>
      <point x="633" y="20"/>
      <point x="610" y="24" type="curve" smooth="yes"/>
      <point x="560" y="33"/>
      <point x="531" y="51"/>
      <point x="531" y="99" type="curve" smooth="yes"/>
      <point x="531" y="310" type="line" smooth="yes"/>
      <point x="531" y="316"/>
      <point x="533" y="327"/>
      <point x="541" y="327" type="curve" smooth="yes"/>
      <point x="614" y="327"/>
      <point x="618" y="312"/>
      <point x="639" y="291" type="curve" smooth="yes"/>
      <point x="670" y="260"/>
      <point x="706" y="193"/>
      <point x="746" y="128" type="curve" smooth="yes"/>
      <point x="792" y="54"/>
      <point x="841" y="-18"/>
      <point x="893" y="-18" type="curve" smooth="yes"/>
      <point x="927" y="-18"/>
      <point x="963" y="-9"/>
      <point x="976" y="0" type="curve"/>
      <point x="980" y="3"/>
      <point x="984" y="8"/>
      <point x="984" y="13" type="curve" smooth="yes"/>
      <point x="984" y="19"/>
      <point x="979" y="25"/>
      <point x="973" y="25" type="curve" smooth="yes"/>
      <point x="914" y="25"/>
      <point x="863" y="96"/>
      <point x="816" y="171" type="curve" smooth="yes"/>
      <point x="714" y="336"/>
      <point x="692" y="359"/>
      <point x="598" y="359" type="curve" smooth="yes"/>
      <point x="374" y="359" type="line" smooth="yes"/>
      <point x="304" y="359"/>
      <point x="281" y="356"/>
      <point x="166" y="171" type="curve" smooth="yes"/>
      <point x="119" y="96"/>
      <point x="68" y="25"/>
      <point x="9" y="25" type="curve" smooth="yes"/>
      <point x="3" y="25"/>
      <point x="-2" y="19"/>
      <point x="-2" y="13" type="curve" smooth="yes"/>
      <point x="-2" y="8"/>
      <point x="2" y="3"/>
      <point x="6" y="0" type="curve"/>
      <point x="19" y="-9"/>
      <point x="55" y="-18"/>
      <point x="89" y="-18" type="curve" smooth="yes"/>
    </contour>
    <contour>
      <point x="557" y="339" type="line"/>
      <point x="736" y="535" type="line" smooth="yes"/>
      <point x="762" y="563"/>
      <point x="815" y="611"/>
      <point x="864" y="622" type="curve" smooth="yes"/>
      <point x="887" y="627"/>
      <point x="897" y="633"/>
      <point x="897" y="642" type="curve" smooth="yes"/>
      <point x="897" y="650"/>
      <point x="885" y="653"/>
      <point x="868" y="653" type="curve" smooth="yes"/>
      <point x="842" y="653"/>
      <point x="824" y="650"/>
      <point x="772" y="650" type="curve"/>
      <point x="300" y="650" type="line"/>
      <point x="253" y="650"/>
      <point x="129" y="653"/>
      <point x="98" y="653" type="curve" smooth="yes"/>
      <point x="81" y="653"/>
      <point x="69" y="650"/>
      <point x="69" y="642" type="curve" smooth="yes"/>
      <point x="69" y="633"/>
      <point x="80" y="627"/>
      <point x="102" y="620" type="curve" smooth="yes"/>
      <point x="136" y="609"/>
      <point x="182" y="574"/>
      <point x="212" y="547" type="curve" smooth="yes"/>
      <point x="445" y="336" type="line"/>
    </contour>
    <contour>
      <point x="512" y="373"/>
      <point x="502" y="378"/>
      <point x="497" y="383" type="curve"/>
      <point x="288" y="573" type="line" smooth="yes"/>
      <point x="268" y="591"/>
      <point x="268" y="611"/>
      <point x="304" y="611" type="curve" smooth="yes"/>
      <point x="696" y="609" type="line" smooth="yes"/>
      <point x="723" y="609"/>
      <point x="720" y="584"/>
      <point x="709" y="573" type="curve" smooth="yes"/>
      <point x="519" y="381" type="line"/>
    </contour>
  </outline>
</glyph>
<glyph name="yusbig-cy" format="1">
  <advance width="701"/>
  <unicode hex="046B"/>
  <outline>
    <contour>
      <point x="107" y="-10"/>
      <point x="145" y="1"/>
      <point x="177" y="66" type="curve" smooth="yes"/>
      <point x="240" y="193"/>
      <point x="257" y="205"/>
      <point x="308" y="205" type="curve" smooth="yes"/>
      <point x="313" y="205"/>
      <point x="318" y="201"/>
      <point x="318" y="196" type="curve" smooth="yes"/>
      <point x="318" y="61" type="line" smooth="yes"/>
      <point x="318" y="31"/>
      <point x="294" y="30"/>
      <point x="274" y="24" type="curve"/>
      <point x="263" y="20"/>
      <point x="251" y="16"/>
      <point x="251" y="6" type="curve" smooth="yes"/>
      <point x="251" y="-4"/>
      <point x="269" y="-3"/>
      <point x="274" y="-3" type="curve" smooth="yes"/>
      <point x="313" y="-3"/>
      <point x="317" y="2"/>
      <point x="352" y="2" type="curve" smooth="yes"/>
      <point x="387" y="2"/>
      <point x="387" y="-3"/>
      <point x="426" y="-3" type="curve" smooth="yes"/>
      <point x="431" y="-3"/>
      <point x="449" y="-4"/>
      <point x="449" y="6" type="curve" smooth="yes"/>
      <point x="449" y="16"/>
      <point x="437" y="20"/>
      <point x="426" y="24" type="curve"/>
      <point x="406" y="30"/>
      <point x="383" y="34"/>
      <point x="383" y="62" type="curve" smooth="yes"/>
      <point x="383" y="196" type="line" smooth="yes"/>
      <point x="383" y="201"/>
      <point x="388" y="205"/>
      <point x="393" y="205" type="curve" smooth="yes"/>
      <point x="441" y="205"/>
      <point x="460" y="197"/>
      <point x="524" y="66" type="curve" smooth="yes"/>
      <point x="556" y="1"/>
      <point x="594" y="-10"/>
      <point x="619" y="-10" type="curve" smooth="yes"/>
      <point x="667" y="-10"/>
      <point x="686" y="0"/>
      <point x="686" y="10" type="curve" smooth="yes"/>
      <point x="686" y="20"/>
      <point x="680" y="23"/>
      <point x="668" y="23" type="curve" smooth="yes"/>
      <point x="642" y="23"/>
      <point x="606" y="28"/>
      <point x="569" y="100" type="curve" smooth="yes"/>
      <point x="516" y="204"/>
      <point x="506" y="227"/>
      <point x="449" y="227" type="curve" smooth="yes"/>
      <point x="248" y="227" type="line"/>
      <point x="203" y="227"/>
      <point x="190" y="214"/>
      <point x="132" y="100" type="curve" smooth="yes"/>
      <point x="95" y="28"/>
      <point x="59" y="23"/>
      <point x="33" y="23" type="curve" smooth="yes"/>
      <point x="21" y="23"/>
      <point x="15" y="20"/>
      <point x="15" y="10" type="curve" smooth="yes"/>
      <point x="15" y="0"/>
      <point x="34" y="-10"/>
      <point x="82" y="-10" type="curve" smooth="yes"/>
    </contour>
    <contour>
      <point x="408" y="213" type="line"/>
      <point x="557" y="337" type="line" smooth="yes"/>
      <point x="586" y="361"/>
      <point x="603" y="367"/>
      <point x="623" y="373" type="curve" smooth="yes"/>
      <point x="639" y="378"/>
      <point x="646" y="382"/>
      <point x="646" y="391" type="curve" smooth="yes"/>
      <point x="646" y="399"/>
      <point x="636" y="400"/>
      <point x="626" y="400" type="curve"/>
      <point x="74" y="400" type="line"/>
      <point x="67" y="400"/>
      <point x="54" y="399"/>
      <point x="54" y="391" type="curve" smooth="yes"/>
      <point x="54" y="382"/>
      <point x="61" y="379"/>
      <point x="72" y="375" type="curve" smooth="yes"/>
      <point x="92" y="368"/>
      <point x="105" y="366"/>
      <point x="128" y="350" type="curve" smooth="yes"/>
      <point x="200" y="299"/>
      <point x="244" y="259"/>
      <point x="318" y="209" type="curve"/>
    </contour>
    <contour>
      <point x="225" y="345" type="line" smooth="yes"/>
      <point x="214" y="353"/>
      <point x="211" y="361"/>
      <point x="225" y="361" type="curve" smooth="yes"/>
      <point x="502" y="361" type="line" smooth="yes"/>
      <point x="512" y="361"/>
      <point x="517" y="357"/>
      <point x="502" y="344" type="curve" smooth="yes"/>
      <point x="373" y="236" type="line"/>
      <point x="372" y="235"/>
      <point x="371" y="235"/>
      <point x="370" y="236" type="curve"/>
    </contour>
  </outline>
</glyph>
<glyph name="Ghestroke-cy" format="1">
  <advance width="517"/>
  <unicode hex="0492"/>
  <outline>
    <contour>
      <point x="348" y="298" type="line"/>
      <point x="363" y="298"/>
      <point x="372" y="307"/>
      <point x="379" y="320" type="curve"/>
      <point x="379" y="321"/>
      <point x="380" y="322"/>
      <point x="380" y="323" type="curve" smooth="yes"/>
      <point x="380" y="329"/>
      <point x="372" y="334"/>
      <point x="366" y="334" type="curve"/>
      <point x="43" y="334" type="line"/>
      <point x="31" y="334"/>
      <point x="19" y="325"/>
      <point x="19" y="316" type="curve" smooth="yes"/>
      <point x="19" y="310"/>
      <point x="24" y="298"/>
      <point x="33" y="298" type="curve"/>
    </contour>
    <component base="uni0413"/>
  </outline>
</glyph>
<glyph name="uni04B0" format="1">
  <advance width="578"/>
  <unicode hex="04B0"/>
  <note>
    uni04B0
  </note>
  <outline>
    <contour>
      <point x="458" y="273" type="line"/>
      <point x="473" y="273"/>
      <point x="482" y="282"/>
      <point x="489" y="295" type="curve"/>
      <point x="489" y="296"/>
      <point x="490" y="297"/>
      <point x="490" y="298" type="curve" smooth="yes"/>
      <point x="490" y="304"/>
      <point x="482" y="309"/>
      <point x="476" y="309" type="curve"/>
      <point x="153" y="309" type="line"/>
      <point x="141" y="309"/>
      <point x="129" y="300"/>
      <point x="129" y="291" type="curve" smooth="yes"/>
      <point x="129" y="285"/>
      <point x="134" y="273"/>
      <point x="143" y="273" type="curve"/>
    </contour>
    <component base="Y"/>
  </outline>
</glyph>
<glyph name="Cheverticalstroke-cy" format="1">
  <advance width="704"/>
  <unicode hex="04B8"/>
  <outline>
    <contour>
      <point x="477" y="-5"/>
      <point x="488" y="0"/>
      <point x="530" y="0" type="curve" smooth="yes"/>
      <point x="571" y="0"/>
      <point x="581" y="-5"/>
      <point x="635" y="-5" type="curve" smooth="yes"/>
      <point x="652" y="-5"/>
      <point x="664" y="-2"/>
      <point x="664" y="6" type="curve" smooth="yes"/>
      <point x="664" y="15"/>
      <point x="654" y="20"/>
      <point x="631" y="24" type="curve" smooth="yes"/>
      <point x="581" y="33"/>
      <point x="576" y="51"/>
      <point x="576" y="100" type="curve" smooth="yes"/>
      <point x="576" y="552" type="line" smooth="yes"/>
      <point x="576" y="590"/>
      <point x="579" y="613"/>
      <point x="629" y="622" type="curve" smooth="yes"/>
      <point x="652" y="626"/>
      <point x="662" y="633"/>
      <point x="662" y="642" type="curve" smooth="yes"/>
      <point x="662" y="650"/>
      <point x="650" y="653"/>
      <point x="633" y="653" type="curve" smooth="yes"/>
      <point x="579" y="653"/>
      <point x="578" y="650"/>
      <point x="542" y="650" type="curve" smooth="yes"/>
      <point x="496" y="650"/>
      <point x="479" y="653"/>
      <point x="425" y="653" type="curve" smooth="yes"/>
      <point x="408" y="653"/>
      <point x="396" y="650"/>
      <point x="396" y="642" type="curve" smooth="yes"/>
      <point x="396" y="633"/>
      <point x="406" y="626"/>
      <point x="429" y="622" type="curve" smooth="yes"/>
      <point x="479" y="613"/>
      <point x="496" y="588"/>
      <point x="496" y="552" type="curve" smooth="yes"/>
      <point x="496" y="390" type="line" smooth="yes"/>
      <point x="496" y="379"/>
      <point x="494" y="371"/>
      <point x="487" y="366" type="curve"/>
      <point x="470" y="352"/>
      <point x="404" y="324"/>
      <point x="331" y="324" type="curve" smooth="yes"/>
      <point x="225" y="324"/>
      <point x="182" y="370"/>
      <point x="182" y="455" type="curve" smooth="yes"/>
      <point x="182" y="552" type="line" smooth="yes"/>
      <point x="182" y="590"/>
      <point x="200" y="613"/>
      <point x="250" y="622" type="curve" smooth="yes"/>
      <point x="273" y="626"/>
      <point x="283" y="633"/>
      <point x="283" y="642" type="curve" smooth="yes"/>
      <point x="283" y="650"/>
      <point x="271" y="653"/>
      <point x="254" y="653" type="curve" smooth="yes"/>
      <point x="200" y="653"/>
      <point x="189" y="650"/>
      <point x="148" y="650" type="curve" smooth="yes"/>
      <point x="108" y="650"/>
      <point x="99" y="653"/>
      <point x="45" y="653" type="curve" smooth="yes"/>
      <point x="28" y="653"/>
      <point x="16" y="650"/>
      <point x="16" y="642" type="curve" smooth="yes"/>
      <point x="16" y="633"/>
      <point x="26" y="626"/>
      <point x="49" y="622" type="curve" smooth="yes"/>
      <point x="99" y="613"/>
      <point x="102" y="597"/>
      <point x="102" y="552" type="curve" smooth="yes"/>
      <point x="102" y="459" type="line" smooth="yes"/>
      <point x="102" y="323"/>
      <point x="169" y="279"/>
      <point x="307" y="279" type="curve" smooth="yes"/>
      <point x="410" y="279"/>
      <point x="478" y="321"/>
      <point x="490" y="336" type="curve" smooth="yes"/>
      <point x="493" y="340"/>
      <point x="496" y="336"/>
      <point x="496" y="320" type="curve" smooth="yes"/>
      <point x="496" y="98" type="line" smooth="yes"/>
      <point x="496" y="54"/>
      <point x="469" y="32"/>
      <point x="427" y="24" type="curve" smooth="yes"/>
      <point x="404" y="20"/>
      <point x="394" y="15"/>
      <point x="394" y="6" type="curve" smooth="yes"/>
      <point x="394" y="-2"/>
      <point x="406" y="-5"/>
      <point x="423" y="-5" type="curve" smooth="yes"/>
    </contour>
    <contour>
      <point x="355" y="504" type="line"/>
      <point x="355" y="519"/>
      <point x="346" y="528"/>
      <point x="333" y="535" type="curve"/>
      <point x="332" y="535"/>
      <point x="331" y="536"/>
      <point x="330" y="536" type="curve" smooth="yes"/>
      <point x="324" y="536"/>
      <point x="319" y="528"/>
      <point x="319" y="522" type="curve"/>
      <point x="319" y="179" type="line"/>
      <point x="319" y="167"/>
      <point x="328" y="155"/>
      <point x="337" y="155" type="curve" smooth="yes"/>
      <point x="343" y="155"/>
      <point x="355" y="160"/>
      <point x="355" y="169" type="curve"/>
    </contour>
  </outline>
</glyph>
<glyph name="cheabkhasian-cy" format="1">
  <advance width="476"/>
  <unicode hex="04BD"/>
  <outline>
    <contour>
      <point x="154" y="292" type="line"/>
      <point x="110" y="292"/>
      <point x="63" y="304"/>
      <point x="63" y="339" type="curve" smooth="yes"/>
      <point x="63" y="350"/>
      <point x="68" y="361"/>
      <point x="77" y="374" type="curve" smooth="yes"/>
      <point x="82" y="384"/>
      <point x="85" y="394"/>
      <point x="85" y="404" type="curve" smooth="yes"/>
      <point x="85" y="426"/>
      <point x="66" y="438"/>
      <point x="46" y="438" type="curve" smooth="yes"/>
      <point x="26" y="438"/>
      <point x="10" y="424"/>
      <point x="10" y="397" type="curve" smooth="yes"/>
      <point x="10" y="382"/>
      <point x="14" y="361"/>
      <point x="23" y="337" type="curve" smooth="yes"/>
      <point x="42" y="284"/>
      <point x="115" y="253"/>
      <point x="176" y="253" type="curve"/>
    </contour>
    <component base="e" xOffset="86"/>
    <contour>
      <point x="308" y="440" type="move" name="top"/>
    </contour>
  </outline>
</glyph>
<glyph name="Chedescenderabkhasian-cy" format="1">
  <advance width="800"/>
  <unicode hex="04BE"/>
  <outline>
    <contour>
      <point x="501" y="-139" type="line"/>
      <point x="501" y="15" type="line"/>
      <point x="455" y="15" type="line"/>
      <point x="455" y="-139" type="line"/>
    </contour>
    <component base="Cheabkhasian-cy"/>
    <component base="uni0308.cap" xOffset="485"/>
  </outline>
</glyph>
<glyph name="chedescenderabkhasian-cy" format="1">
  <advance width="471"/>
  <unicode hex="04BF"/>
  <outline>
    <contour>
      <point x="319" y="-141" type="line"/>
      <point x="319" y="15" type="line"/>
      <point x="279" y="15" type="line"/>
      <point x="279" y="-141" type="line"/>
    </contour>
    <component base="cheabkhasian-cy"/>
    <component base="dieresis" xOffset="153"/>
  </outline>
</glyph>
<glyph name="uni04E8" format="1">
  <advance width="763"/>
  <unicode hex="04E8"/>
  <note>
    uni04E8
  </note>
  <outline>
    <contour>
      <point x="125" y="315" type="line"/>
      <point x="644" y="315" type="line"/>
      <point x="644" y="354" type="line"/>
      <point x="125" y="354" type="line"/>
    </contour>
    <component base="O"/>
  </outline>
</glyph>
<glyph name="uni0511" format="1">
  <advance width="371"/>
  <unicode hex="0511"/>
  <note>
    uni0511
  </note>
  <outline>
    <contour>
      <point x="237" y="-14"/>
      <point x="292" y="23"/>
      <point x="315" y="56" type="curve" smooth="yes"/>
      <point x="319" y="62"/>
      <point x="326" y="74"/>
      <point x="326" y="85" type="curve" smooth="yes"/>
      <point x="326" y="91"/>
      <point x="324" y="97"/>
      <point x="319" y="97" type="curve" smooth="yes"/>
      <point x="316" y="97"/>
      <point x="311" y="93"/>
      <point x="308" y="90" type="curve"/>
      <point x="282" y="56"/>
      <point x="235" y="45"/>
      <point x="209" y="45" type="curve" smooth="yes"/>
      <point x="158" y="45"/>
      <point x="119" y="76"/>
      <point x="119" y="127" type="curve" smooth="yes"/>
      <point x="119" y="165"/>
      <point x="147" y="197"/>
      <point x="185" y="197" type="curve" smooth="yes"/>
      <point x="200" y="197"/>
      <point x="207" y="191"/>
      <point x="229" y="191" type="curve" smooth="yes"/>
      <point x="249" y="191"/>
      <point x="266" y="206"/>
      <point x="266" y="228" type="curve" smooth="yes"/>
      <point x="266" y="241"/>
      <point x="259" y="247"/>
      <point x="246" y="247" type="curve" smooth="yes"/>
      <point x="233" y="247"/>
      <point x="217" y="239"/>
      <point x="198" y="239" type="curve" smooth="yes"/>
      <point x="153" y="239"/>
      <point x="130" y="274"/>
      <point x="130" y="316" type="curve" smooth="yes"/>
      <point x="130" y="352"/>
      <point x="157" y="385"/>
      <point x="193" y="385" type="curve" smooth="yes"/>
      <point x="222" y="385"/>
      <point x="240" y="367"/>
      <point x="253" y="351" type="curve" smooth="yes"/>
      <point x="265" y="338"/>
      <point x="273" y="325"/>
      <point x="282" y="325" type="curve" smooth="yes"/>
      <point x="298" y="325"/>
      <point x="316" y="342"/>
      <point x="316" y="352" type="curve" smooth="yes"/>
      <point x="316" y="385"/>
      <point x="263" y="414"/>
      <point x="209" y="414" type="curve" smooth="yes"/>
      <point x="136" y="414"/>
      <point x="65" y="368"/>
      <point x="65" y="295" type="curve" smooth="yes"/>
      <point x="65" y="257"/>
      <point x="85" y="230"/>
      <point x="120" y="216" type="curve" smooth="yes"/>
      <point x="128" y="213"/>
      <point x="129" y="211"/>
      <point x="120" y="207" type="curve" smooth="yes"/>
      <point x="74" y="187"/>
      <point x="45" y="150"/>
      <point x="45" y="100" type="curve" smooth="yes"/>
      <point x="45" y="33"/>
      <point x="105" y="-14"/>
      <point x="172" y="-14" type="curve" smooth="yes"/>
    </contour>
    <contour>
      <point x="197" y="440" type="move" name="top"/>
    </contour>
  </outline>
</glyph>
<glyph name="uni1FBF" format="1">
  <advance width="200"/>
  <unicode hex="1FBF"/>
  <note>
    uni1FBF
  </note>
  <outline>
    <contour>
      <point x="116" y="447"/>
      <point x="162" y="501"/>
      <point x="162" y="554" type="curve" smooth="yes"/>
      <point x="162" y="601"/>
      <point x="137" y="641"/>
      <point x="87" y="641" type="curve" smooth="yes"/>
      <point x="63" y="641"/>
      <point x="41" y="626"/>
      <point x="41" y="603" type="curve" smooth="yes"/>
      <point x="41" y="580"/>
      <point x="57" y="567"/>
      <point x="77" y="564" type="curve" smooth="yes"/>
      <point x="98" y="562"/>
      <point x="111" y="549"/>
      <point x="111" y="529" type="curve" smooth="yes"/>
      <point x="111" y="500"/>
      <point x="86" y="478"/>
      <point x="58" y="470" type="curve" smooth="yes"/>
      <point x="50" y="468"/>
      <point x="44" y="464"/>
      <point x="44" y="457" type="curve" smooth="yes"/>
      <point x="44" y="452"/>
      <point x="51" y="447"/>
      <point x="64" y="447" type="curve" smooth="yes"/>
    </contour>
    <contour>
      <point x="116" y="440" type="move" name="_top"/>
    </contour>
  </outline>
</glyph>
<glyph name="uni1FC1" format="1">
  <advance width="300"/>
  <unicode hex="1FC1"/>
  <note>
    uni1FC1
  </note>
  <outline>
    <component base="dieresis" yOffset="-15"/>
    <component base="uni1FC0" xOffset="6" yOffset="159"/>
    <contour>
      <point x="150" y="440" type="move" name="_top"/>
    </contour>
  </outline>
</glyph>
<glyph name="uni1FDD" format="1">
  <advance width="300"/>
  <unicode hex="1FDD"/>
  <note>
    uni1FDD
  </note>
  <outline>
    <contour>
      <point x="277" y="440"/>
      <point x="277" y="444"/>
      <point x="277" y="453" type="curve" smooth="yes"/>
      <point x="277" y="471"/>
      <point x="245" y="593"/>
      <point x="236" y="629" type="curve" smooth="yes"/>
      <point x="233" y="641"/>
      <point x="219" y="647"/>
      <point x="211" y="647" type="curve" smooth="yes"/>
      <point x="192" y="647"/>
      <point x="173" y="622"/>
      <point x="173" y="606" type="curve" smooth="yes"/>
      <point x="173" y="596"/>
      <point x="223" y="498"/>
      <point x="244" y="462" type="curve" smooth="yes"/>
      <point x="250" y="452"/>
      <point x="260" y="440"/>
      <point x="268" y="440" type="curve" smooth="yes"/>
    </contour>
    <component base="uni1FBF" xOffset="185" xScale="-1"/>
    <contour>
      <point x="174" y="440" type="move" name="_top"/>
    </contour>
  </outline>
</glyph>
<glyph name="uni1FDE" format="1">
  <advance width="300"/>
  <unicode hex="1FDE"/>
  <note>
    uni1FDE
  </note>
  <outline>
    <contour>
      <point x="191" y="441"/>
      <point x="201" y="453"/>
      <point x="207" y="463" type="curve" smooth="yes"/>
      <point x="228" y="499"/>
      <point x="278" y="597"/>
      <point x="278" y="607" type="curve" smooth="yes"/>
      <point x="278" y="623"/>
      <point x="259" y="648"/>
      <point x="240" y="648" type="curve" smooth="yes"/>
      <point x="232" y="648"/>
      <point x="218" y="642"/>
      <point x="215" y="630" type="curve" smooth="yes"/>
      <point x="206" y="594"/>
      <point x="174" y="472"/>
      <point x="174" y="454" type="curve" smooth="yes"/>
      <point x="174" y="445"/>
      <point x="174" y="441"/>
      <point x="183" y="441" type="curve" smooth="yes"/>
    </contour>
    <component base="uni1FBF" xOffset="185" xScale="-1"/>
    <contour>
      <point x="157" y="440" type="move" name="_top"/>
    </contour>
  </outline>
</glyph>
<glyph name="uni1FDF" format="1">
  <advance width="300"/>
  <unicode hex="1FDF"/>
  <note>
    uni1FDF
  </note>
  <outline>
    <component base="uni1FC0" yOffset="134"/>
    <component base="uni0313.grkstacksc" xOffset="135" yOffset="-20" xScale="-1"/>
    <contour>
      <point x="174" y="440" type="move" name="_top"/>
    </contour>
  </outline>
</glyph>
<glyph name="uni1FED" format="1">
  <advance width="300"/>
  <unicode hex="1FED"/>
  <note>
    uni1FED
  </note>
  <outline>
    <component base="uni0308.grkstacksc" xOffset="151" yOffset="19"/>
    <component base="gravecomb.grksc" xOffset="123" yOffset="47"/>
    <contour>
      <point x="152" y="440" type="move" name="_top"/>
    </contour>
  </outline>
</glyph>
<glyph name="uni203D" format="1">
  <advance width="391"/>
  <unicode hex="203D"/>
  <note>
    uni203D
  </note>
  <outline>
    <contour>
      <point x="176" y="181"/>
      <point x="181" y="194"/>
      <point x="181" y="204" type="curve" smooth="yes"/>
      <point x="182" y="236"/>
      <point x="183" y="265"/>
      <point x="211" y="283" type="curve" smooth="yes"/>
      <point x="243" y="304"/>
      <point x="257" y="312"/>
      <point x="301" y="336" type="curve" smooth="yes"/>
      <point x="321" y="347"/>
      <point x="345" y="366"/>
      <point x="345" y="415" type="curve" smooth="yes"/>
      <point x="345" y="470"/>
      <point x="294" y="576"/>
      <point x="232" y="625" type="curve"/>
      <point x="232" y="662"/>
      <point x="219" y="685"/>
      <point x="183" y="685" type="curve" smooth="yes"/>
      <point x="162" y="684"/>
      <point x="144" y="679"/>
      <point x="134" y="660" type="curve"/>
      <point x="118" y="657"/>
      <point x="100" y="642"/>
      <point x="100" y="625" type="curve" smooth="yes"/>
      <point x="100" y="603"/>
      <point x="114" y="580"/>
      <point x="130" y="572" type="curve"/>
      <point x="134" y="508"/>
      <point x="142" y="418"/>
      <point x="149" y="338" type="curve"/>
      <point x="135" y="325"/>
      <point x="128" y="312"/>
      <point x="128" y="296" type="curve" smooth="yes"/>
      <point x="128" y="251"/>
      <point x="138" y="232"/>
      <point x="144" y="210" type="curve" smooth="yes"/>
      <point x="148" y="194"/>
      <point x="159" y="181"/>
      <point x="166" y="181" type="curve" smooth="yes"/>
    </contour>
    <contour>
      <point x="213" y="-14"/>
      <point x="240" y="13"/>
      <point x="240" y="46" type="curve" smooth="yes"/>
      <point x="240" y="79"/>
      <point x="213" y="106"/>
      <point x="180" y="106" type="curve" smooth="yes"/>
      <point x="147" y="106"/>
      <point x="120" y="79"/>
      <point x="120" y="46" type="curve" smooth="yes"/>
      <point x="120" y="13"/>
      <point x="147" y="-14"/>
      <point x="180" y="-14" type="curve" smooth="yes"/>
    </contour>
    <contour>
      <point x="217" y="442"/>
      <point x="225" y="509"/>
      <point x="229" y="566" type="curve"/>
      <point x="270" y="550"/>
      <point x="290" y="509"/>
      <point x="290" y="458" type="curve" smooth="yes"/>
      <point x="290" y="429"/>
      <point x="257" y="401"/>
      <point x="229" y="387" type="curve" smooth="yes"/>
      <point x="223" y="384"/>
      <point x="216" y="380"/>
      <point x="210" y="377" type="curve"/>
    </contour>
  </outline>
</glyph>
<glyph name="uni203E" format="1">
  <advance width="500"/>
  <unicode hex="203E"/>
  <note>
    uni203E
  </note>
  <outline>
    <contour>
      <point x="419" y="570" type="line" smooth="yes"/>
      <point x="438" y="570"/>
      <point x="450" y="586"/>
      <point x="450" y="608" type="curve" smooth="yes"/>
      <point x="450" y="614"/>
      <point x="443" y="620"/>
      <point x="437" y="620" type="curve" smooth="yes"/>
      <point x="74" y="620" type="line" smooth="yes"/>
      <point x="56" y="620"/>
      <point x="50" y="591"/>
      <point x="50" y="582" type="curve" smooth="yes"/>
      <point x="50" y="576"/>
      <point x="57" y="570"/>
      <point x="64" y="570" type="curve" smooth="yes"/>
    </contour>
  </outline>
</glyph>
<glyph name="franc" format="1">
  <advance width="512"/>
  <unicode hex="20A3"/>
  <outline>
    <contour>
      <point x="365" y="145" type="line" smooth="yes"/>
      <point x="382" y="145"/>
      <point x="390" y="162"/>
      <point x="390" y="179" type="curve" smooth="yes"/>
      <point x="390" y="184"/>
      <point x="384" y="188"/>
      <point x="380" y="188" type="curve" smooth="yes"/>
      <point x="29" y="188" type="line" smooth="yes"/>
      <point x="14" y="188"/>
      <point x="10" y="162"/>
      <point x="10" y="154" type="curve" smooth="yes"/>
      <point x="10" y="150"/>
      <point x="16" y="145"/>
      <point x="21" y="145" type="curve" smooth="yes"/>
    </contour>
    <component base="F"/>
  </outline>
</glyph>
<glyph name="lira" format="1">
  <advance width="490"/>
  <unicode hex="20A4"/>
  <outline>
    <contour>
      <point x="333" y="337" type="line" smooth="yes"/>
      <point x="348" y="338"/>
      <point x="364" y="352"/>
      <point x="364" y="359" type="curve" smooth="yes"/>
      <point x="364" y="364"/>
      <point x="358" y="371"/>
      <point x="351" y="371" type="curve" smooth="yes"/>
      <point x="55" y="351" type="line" smooth="yes"/>
      <point x="42" y="350"/>
      <point x="31" y="338"/>
      <point x="31" y="329" type="curve" smooth="yes"/>
      <point x="31" y="323"/>
      <point x="38" y="317"/>
      <point x="45" y="317" type="curve" smooth="yes"/>
    </contour>
    <contour>
      <point x="332" y="237" type="line" smooth="yes"/>
      <point x="347" y="238"/>
      <point x="363" y="252"/>
      <point x="363" y="259" type="curve" smooth="yes"/>
      <point x="363" y="264"/>
      <point x="357" y="271"/>
      <point x="350" y="271" type="curve" smooth="yes"/>
      <point x="54" y="251" type="line" smooth="yes"/>
      <point x="41" y="250"/>
      <point x="30" y="238"/>
      <point x="30" y="229" type="curve" smooth="yes"/>
      <point x="30" y="223"/>
      <point x="37" y="217"/>
      <point x="44" y="217" type="curve" smooth="yes"/>
    </contour>
    <component base="L.script"/>
  </outline>
</glyph>
<glyph name="peseta" format="1">
  <advance width="621"/>
  <unicode hex="20A7"/>
  <outline>
    <contour>
      <point x="564" y="444" type="line" smooth="yes"/>
      <point x="581" y="444"/>
      <point x="589" y="458"/>
      <point x="595" y="474" type="curve"/>
      <point x="598" y="481"/>
      <point x="589" y="488"/>
      <point x="582" y="488" type="curve" smooth="yes"/>
      <point x="64" y="475" type="line" smooth="yes"/>
      <point x="50" y="475"/>
      <point x="40" y="458"/>
      <point x="40" y="449" type="curve" smooth="yes"/>
      <point x="40" y="443"/>
      <point x="47" y="437"/>
      <point x="54" y="437" type="curve" smooth="yes"/>
    </contour>
    <component base="P"/>
  </outline>
</glyph>
<glyph name="won" format="1">
  <advance width="916"/>
  <unicode hex="20A9"/>
  <outline>
    <contour>
      <point x="874" y="316" type="line" smooth="yes"/>
      <point x="891" y="316"/>
      <point x="899" y="330"/>
      <point x="905" y="346" type="curve"/>
      <point x="908" y="353"/>
      <point x="899" y="360"/>
      <point x="892" y="360" type="curve" smooth="yes"/>
      <point x="64" y="347" type="line" smooth="yes"/>
      <point x="50" y="347"/>
      <point x="40" y="330"/>
      <point x="40" y="321" type="curve" smooth="yes"/>
      <point x="40" y="315"/>
      <point x="47" y="309"/>
      <point x="54" y="309" type="curve" smooth="yes"/>
    </contour>
    <component base="W"/>
  </outline>
</glyph>
<glyph name="tugrik" format="1">
  <advance width="670"/>
  <unicode hex="20AE"/>
  <outline>
    <contour>
      <point x="543" y="430" type="line"/>
      <point x="557" y="435"/>
      <point x="560" y="450"/>
      <point x="560" y="465" type="curve"/>
      <point x="560" y="473"/>
      <point x="551" y="476"/>
      <point x="544" y="473" type="curve"/>
      <point x="129" y="309" type="line"/>
      <point x="116" y="305"/>
      <point x="113" y="287"/>
      <point x="116" y="280" type="curve" smooth="yes"/>
      <point x="118" y="275"/>
      <point x="125" y="271"/>
      <point x="132" y="274" type="curve"/>
    </contour>
    <contour>
      <point x="543" y="316" type="line"/>
      <point x="557" y="321"/>
      <point x="560" y="336"/>
      <point x="560" y="351" type="curve"/>
      <point x="560" y="359"/>
      <point x="551" y="362"/>
      <point x="544" y="359" type="curve"/>
      <point x="129" y="195" type="line"/>
      <point x="116" y="191"/>
      <point x="113" y="173"/>
      <point x="116" y="166" type="curve" smooth="yes"/>
      <point x="118" y="161"/>
      <point x="125" y="157"/>
      <point x="132" y="160" type="curve"/>
    </contour>
    <component base="T"/>
  </outline>
</glyph>
<glyph name="uni20B2" format="1">
  <advance width="729"/>
  <unicode hex="20B2"/>
  <note>
    uni20B2
  </note>
  <outline>
    <contour>
      <point x="381" y="-96"/>
      <point x="404" y="-93"/>
      <point x="404" y="-72" type="curve" smooth="yes"/>
      <point x="404" y="715" type="line" smooth="yes"/>
      <point x="404" y="722"/>
      <point x="397" y="728"/>
      <point x="390" y="728" type="curve" smooth="yes"/>
      <point x="384" y="728"/>
      <point x="360" y="719"/>
      <point x="360" y="697" type="curve" smooth="yes"/>
      <point x="360" y="-82" type="line" smooth="yes"/>
      <point x="360" y="-89"/>
      <point x="366" y="-96"/>
      <point x="372" y="-96" type="curve" smooth="yes"/>
    </contour>
    <component base="G"/>
  </outline>
</glyph>
<glyph name="prescription" format="1">
  <advance width="713"/>
  <unicode hex="211E"/>
  <note>
    prescription
  </note>
  <outline>
    <contour>
      <point x="411" y="-21"/>
      <point x="418" y="-15"/>
      <point x="430" y="0" type="curve"/>
      <point x="612" y="228" type="line"/>
      <point x="619" y="237"/>
      <point x="610" y="256"/>
      <point x="599" y="256" type="curve" smooth="yes"/>
      <point x="588" y="256"/>
      <point x="581" y="255"/>
      <point x="574" y="246" type="curve"/>
      <point x="393" y="19" type="line"/>
      <point x="377" y="-1"/>
      <point x="384" y="-21"/>
      <point x="399" y="-21" type="curve" smooth="yes"/>
    </contour>
    <component base="R"/>
  </outline>
</glyph>
<glyph name="notequal" format="1">
  <advance width="566"/>
  <unicode hex="2260"/>
  <note>
    notequal
  </note>
  <outline>
    <contour>
      <point x="155" y="-20"/>
      <point x="169" y="-19"/>
      <point x="177" y="-5" type="curve" smooth="yes"/>
      <point x="450" y="485" type="line"/>
      <point x="454" y="491"/>
      <point x="450" y="502"/>
      <point x="443" y="502" type="curve" smooth="yes"/>
      <point x="426" y="502"/>
      <point x="411" y="500"/>
      <point x="402" y="485" type="curve" smooth="yes"/>
      <point x="129" y="-5" type="line"/>
      <point x="125" y="-11"/>
      <point x="132" y="-20"/>
      <point x="139" y="-20" type="curve" smooth="yes"/>
    </contour>
    <component base="equal"/>
  </outline>
</glyph>
<glyph name="uni226F" format="1">
  <advance width="560"/>
  <unicode hex="226F"/>
  <note>
    uni226F
  </note>
  <outline>
    <contour>
      <point x="143" y="-82"/>
      <point x="158" y="-81"/>
      <point x="164" y="-67" type="curve" smooth="yes"/>
      <point x="413" y="515" type="line" smooth="yes"/>
      <point x="417" y="524"/>
      <point x="413" y="532"/>
      <point x="400" y="532" type="curve" smooth="yes"/>
      <point x="383" y="532"/>
      <point x="367" y="530"/>
      <point x="361" y="515" type="curve" smooth="yes"/>
      <point x="112" y="-67" type="line" smooth="yes"/>
      <point x="109" y="-75"/>
      <point x="115" y="-82"/>
      <point x="128" y="-82" type="curve" smooth="yes"/>
    </contour>
    <component base="greater"/>
  </outline>
</glyph>
<glyph name="uni2B46" format="1">
  <advance width="1001"/>
  <unicode hex="2B46"/>
  <note>
    uni2B46
  </note>
  <outline>
    <contour>
      <point x="723" y="94"/>
      <point x="736" y="100"/>
      <point x="742" y="106" type="curve" smooth="yes"/>
      <point x="800" y="171"/>
      <point x="861" y="239"/>
      <point x="938" y="279" type="curve"/>
      <point x="951" y="285"/>
      <point x="951" y="286"/>
      <point x="951" y="292" type="curve" smooth="yes"/>
      <point x="951" y="298"/>
      <point x="948" y="300"/>
      <point x="939" y="305" type="curve" smooth="yes"/>
      <point x="862" y="345"/>
      <point x="801" y="413"/>
      <point x="743" y="478" type="curve" smooth="yes"/>
      <point x="737" y="485"/>
      <point x="724" y="490"/>
      <point x="715" y="490" type="curve" smooth="yes"/>
      <point x="706" y="490"/>
      <point x="703" y="485"/>
      <point x="706" y="478" type="curve" smooth="yes"/>
      <point x="710" y="471"/>
      <point x="713" y="463"/>
      <point x="717" y="456" type="curve"/>
      <point x="82" y="456" type="line" smooth="yes"/>
      <point x="65" y="456"/>
      <point x="51" y="441"/>
      <point x="51" y="424" type="curve" smooth="yes"/>
      <point x="51" y="419"/>
      <point x="50" y="410"/>
      <point x="64" y="410" type="curve" smooth="yes"/>
      <point x="742" y="410" type="line"/>
      <point x="752" y="394"/>
      <point x="761" y="378"/>
      <point x="772" y="363" type="curve"/>
      <point x="82" y="363" type="line" smooth="yes"/>
      <point x="65" y="363"/>
      <point x="57" y="347"/>
      <point x="51" y="331" type="curve"/>
      <point x="51" y="326"/>
      <point x="50" y="317"/>
      <point x="64" y="317" type="curve"/>
      <point x="807" y="317" type="line"/>
      <point x="810" y="313"/>
      <point x="814" y="310"/>
      <point x="817" y="306" type="curve" smooth="yes"/>
      <point x="822" y="301"/>
      <point x="824" y="298"/>
      <point x="824" y="292" type="curve" smooth="yes"/>
      <point x="824" y="286"/>
      <point x="824" y="284"/>
      <point x="817" y="278" type="curve"/>
      <point x="813" y="274"/>
      <point x="810" y="271"/>
      <point x="807" y="267" type="curve"/>
      <point x="82" y="267" type="line" smooth="yes"/>
      <point x="65" y="267"/>
      <point x="57" y="251"/>
      <point x="51" y="235" type="curve"/>
      <point x="51" y="230"/>
      <point x="50" y="221"/>
      <point x="64" y="221" type="curve" smooth="yes"/>
      <point x="771" y="221" type="line"/>
      <point x="761" y="206"/>
      <point x="751" y="190"/>
      <point x="742" y="174" type="curve"/>
      <point x="82" y="174" type="line" smooth="yes"/>
      <point x="62" y="174"/>
      <point x="50" y="155"/>
      <point x="50" y="139" type="curve" smooth="yes"/>
      <point x="50" y="133"/>
      <point x="58" y="128"/>
      <point x="64" y="128" type="curve" smooth="yes"/>
      <point x="717" y="128" type="line"/>
      <point x="713" y="121"/>
      <point x="709" y="113"/>
      <point x="705" y="106" type="curve"/>
      <point x="703" y="102"/>
      <point x="703" y="94"/>
      <point x="714" y="94" type="curve" smooth="yes"/>
    </contour>
  </outline>
</glyph>
<glyph name="uni2C60" format="1">
  <advance width="584"/>
  <unicode hex="2C60"/>
  <note>
    uni2C60
  </note>
  <outline>
    <contour>
      <point x="370" y="367" type="line"/>
      <point x="385" y="367"/>
      <point x="394" y="376"/>
      <point x="401" y="389" type="curve"/>
      <point x="401" y="390"/>
      <point x="402" y="391"/>
      <point x="402" y="392" type="curve" smooth="yes"/>
      <point x="402" y="398"/>
      <point x="394" y="403"/>
      <point x="388" y="403" type="curve"/>
      <point x="81" y="403" type="line"/>
      <point x="69" y="403"/>
      <point x="57" y="394"/>
      <point x="57" y="385" type="curve" smooth="yes"/>
      <point x="57" y="379"/>
      <point x="62" y="367"/>
      <point x="71" y="367" type="curve"/>
    </contour>
    <contour>
      <point x="370" y="257" type="line"/>
      <point x="385" y="257"/>
      <point x="394" y="266"/>
      <point x="401" y="279" type="curve"/>
      <point x="401" y="280"/>
      <point x="402" y="281"/>
      <point x="402" y="282" type="curve" smooth="yes"/>
      <point x="402" y="288"/>
      <point x="394" y="293"/>
      <point x="388" y="293" type="curve"/>
      <point x="81" y="293" type="line"/>
      <point x="69" y="293"/>
      <point x="57" y="284"/>
      <point x="57" y="275" type="curve" smooth="yes"/>
      <point x="57" y="269"/>
      <point x="62" y="257"/>
      <point x="71" y="257" type="curve"/>
    </contour>
    <component base="L"/>
  </outline>
</glyph>
<glyph name="uni2C63" format="1">
  <advance width="552"/>
  <unicode hex="2C63"/>
  <note>
    uni2C63
  </note>
  <outline>
    <contour>
      <point x="344" y="433" type="line"/>
      <point x="359" y="433"/>
      <point x="368" y="442"/>
      <point x="375" y="455" type="curve"/>
      <point x="375" y="456"/>
      <point x="376" y="457"/>
      <point x="376" y="458" type="curve" smooth="yes"/>
      <point x="376" y="464"/>
      <point x="368" y="469"/>
      <point x="362" y="469" type="curve"/>
      <point x="35" y="469" type="line"/>
      <point x="23" y="469"/>
      <point x="11" y="460"/>
      <point x="11" y="451" type="curve" smooth="yes"/>
      <point x="11" y="445"/>
      <point x="16" y="433"/>
      <point x="25" y="433" type="curve"/>
    </contour>
    <component base="P"/>
  </outline>
</glyph>
<glyph name="uniA72B" format="1">
  <advance width="397"/>
  <unicode hex="A72B"/>
  <note>
    uniA72B
  </note>
  <outline>
    <contour>
      <point x="258" y="-190"/>
      <point x="326" y="-110"/>
      <point x="326" y="-89" type="curve" smooth="yes"/>
      <point x="326" y="-82"/>
      <point x="324" y="-77"/>
      <point x="319" y="-77" type="curve" smooth="yes"/>
      <point x="314" y="-77"/>
      <point x="306" y="-81"/>
      <point x="303" y="-85" type="curve"/>
      <point x="276" y="-114"/>
      <point x="252" y="-135"/>
      <point x="207" y="-135" type="curve" smooth="yes"/>
      <point x="168" y="-135"/>
      <point x="143" y="-107"/>
      <point x="143" y="-69" type="curve" smooth="yes"/>
      <point x="143" y="-16"/>
      <point x="165" y="21"/>
      <point x="183" y="37" type="curve" smooth="yes"/>
      <point x="212" y="63"/>
      <point x="231" y="75"/>
      <point x="253" y="88" type="curve" smooth="yes"/>
      <point x="265" y="95"/>
      <point x="284" y="113"/>
      <point x="284" y="122" type="curve" smooth="yes"/>
      <point x="284" y="130"/>
      <point x="275" y="131"/>
      <point x="267" y="131" type="curve" smooth="yes"/>
      <point x="263" y="131"/>
      <point x="236" y="111"/>
      <point x="205" y="111" type="curve" smooth="yes"/>
      <point x="131" y="111"/>
      <point x="119" y="174"/>
      <point x="119" y="206" type="curve" smooth="yes"/>
      <point x="119" y="302"/>
      <point x="176" y="367"/>
      <point x="258" y="367" type="curve" smooth="yes"/>
      <point x="287" y="367"/>
      <point x="300" y="354"/>
      <point x="311" y="342" type="curve" smooth="yes"/>
      <point x="321" y="330"/>
      <point x="330" y="318"/>
      <point x="349" y="318" type="curve" smooth="yes"/>
      <point x="359" y="318"/>
      <point x="389" y="340"/>
      <point x="389" y="357" type="curve" smooth="yes"/>
      <point x="389" y="391"/>
      <point x="333" y="413"/>
      <point x="276" y="413" type="curve" smooth="yes"/>
      <point x="264" y="413"/>
      <point x="231" y="404"/>
      <point x="207" y="392" type="curve" smooth="yes"/>
      <point x="128" y="353"/>
      <point x="43" y="291"/>
      <point x="43" y="170" type="curve" smooth="yes"/>
      <point x="43" y="126"/>
      <point x="74" y="64"/>
      <point x="166" y="62" type="curve" smooth="yes"/>
      <point x="171" y="62"/>
      <point x="171" y="58"/>
      <point x="167" y="56" type="curve"/>
      <point x="89" y="11"/>
      <point x="73" y="-54"/>
      <point x="73" y="-86" type="curve" smooth="yes"/>
      <point x="73" y="-149"/>
      <point x="116" y="-190"/>
      <point x="181" y="-190" type="curve" smooth="yes"/>
    </contour>
  </outline>
</glyph>
<glyph name="uniA742" format="1">
  <advance width="687"/>
  <unicode hex="A742"/>
  <note>
    uniA742
  </note>
  <outline>
    <contour>
      <point x="509" y="318" type="line" smooth="yes"/>
      <point x="520" y="328"/>
      <point x="520" y="341"/>
      <point x="515" y="355" type="curve"/>
      <point x="515" y="356"/>
      <point x="515" y="357"/>
      <point x="514" y="358" type="curve" smooth="yes"/>
      <point x="510" y="362"/>
      <point x="501" y="360"/>
      <point x="496" y="356" type="curve"/>
      <point x="291" y="151" type="line"/>
      <point x="283" y="142"/>
      <point x="281" y="127"/>
      <point x="287" y="121" type="curve" smooth="yes"/>
      <point x="291" y="117"/>
      <point x="303" y="112"/>
      <point x="310" y="118" type="curve"/>
    </contour>
    <component base="K" xOffset="6"/>
  </outline>
</glyph>
<glyph name="uniA751" format="1">
  <advance width="519"/>
  <unicode hex="A751"/>
  <note>
    uniA751
  </note>
  <outline>
    <contour>
      <point x="-13" y="-190"/>
      <point x="-10" y="-183"/>
      <point x="-2" y="-169" type="curve" smooth="yes"/>
      <point x="11" y="-146"/>
      <point x="24" y="-137"/>
      <point x="57" y="-137" type="curve"/>
      <point x="330" y="-137" type="line"/>
      <point x="352" y="-137"/>
      <point x="371" y="-128"/>
      <point x="371" y="-113" type="curve" smooth="yes"/>
      <point x="371" y="-104"/>
      <point x="362" y="-101"/>
      <point x="342" y="-101" type="curve"/>
      <point x="-15" y="-101" type="line"/>
      <point x="-38" y="-101"/>
      <point x="-44" y="-109"/>
      <point x="-44" y="-124" type="curve" smooth="yes"/>
      <point x="-44" y="-150"/>
      <point x="-34" y="-190"/>
      <point x="-25" y="-190" type="curve" smooth="yes"/>
    </contour>
    <component base="p"/>
  </outline>
</glyph>
<glyph name="Ohorn.sc" format="1">
  <advance width="583"/>
  <note>
    Ohorn.sc
  </note>
  <outline>
    <contour>
      <point x="427" y="-14"/>
      <point x="535" y="146"/>
      <point x="535" y="280" type="curve" smooth="yes"/>
      <point x="535" y="307"/>
      <point x="530" y="334"/>
      <point x="521" y="359" type="curve" smooth="yes"/>
      <point x="516" y="372"/>
      <point x="523" y="371"/>
      <point x="528" y="372" type="curve" smooth="yes"/>
      <point x="591" y="385"/>
      <point x="628" y="427"/>
      <point x="628" y="480" type="curve" smooth="yes"/>
      <point x="628" y="502"/>
      <point x="621" y="536"/>
      <point x="598" y="536" type="curve" smooth="yes"/>
      <point x="572" y="536"/>
      <point x="535" y="522"/>
      <point x="535" y="498" type="curve" smooth="yes"/>
      <point x="535" y="486"/>
      <point x="547" y="477"/>
      <point x="558" y="466" type="curve" smooth="yes"/>
      <point x="567" y="457"/>
      <point x="576" y="448"/>
      <point x="576" y="439" type="curve" smooth="yes"/>
      <point x="576" y="422"/>
      <point x="565" y="412"/>
      <point x="540" y="412" type="curve" smooth="yes"/>
      <point x="503" y="412"/>
      <point x="475" y="428"/>
      <point x="445" y="440" type="curve" smooth="yes"/>
      <point x="419" y="450"/>
      <point x="393" y="459"/>
      <point x="359" y="459" type="curve" smooth="yes"/>
      <point x="168" y="459"/>
      <point x="60" y="300"/>
      <point x="60" y="165" type="curve" smooth="yes"/>
      <point x="60" y="69"/>
      <point x="116" y="-14"/>
      <point x="236" y="-14" type="curve" smooth="yes"/>
    </contour>
    <contour>
      <point x="174" y="20"/>
      <point x="137" y="82"/>
      <point x="137" y="145" type="curve" smooth="yes"/>
      <point x="137" y="272"/>
      <point x="238" y="425"/>
      <point x="352" y="425" type="curve" smooth="yes"/>
      <point x="423" y="425"/>
      <point x="459" y="364"/>
      <point x="459" y="300" type="curve" smooth="yes"/>
      <point x="459" y="172"/>
      <point x="364" y="20"/>
      <point x="244" y="20" type="curve" smooth="yes"/>
    </contour>
  </outline>
</glyph>
<glyph name="Tbar.sc" format="1">
  <advance width="550"/>
  <note>
    Tbar.sc
  </note>
  <outline>
    <contour>
      <point x="381" y="206" type="line"/>
      <point x="397" y="206"/>
      <point x="412" y="213"/>
      <point x="412" y="233" type="curve" smooth="yes"/>
      <point x="412" y="239"/>
      <point x="405" y="245"/>
      <point x="399" y="245" type="curve"/>
      <point x="160" y="245" type="line"/>
      <point x="146" y="245"/>
      <point x="136" y="227"/>
      <point x="136" y="218" type="curve" smooth="yes"/>
      <point x="136" y="212"/>
      <point x="143" y="206"/>
      <point x="150" y="206" type="curve"/>
    </contour>
    <component base="T.sc"/>
  </outline>
</glyph>
<glyph name="Udieresis.deu" format="1">
  <advance width="738"/>
  <note>
    Udieresis.deu
  </note>
  <outline>
    <component base="U"/>
    <component base="uni0307.cap" xOffset="323" yOffset="-90"/>
    <component base="uni0307.cap" xOffset="450" yOffset="-88"/>
    <contour>
      <point x="368" y="-30" type="move" name="bottom.cap"/>
    </contour>
  </outline>
</glyph>
<glyph name="Uhorn.sc" format="1">
  <advance width="520"/>
  <note>
    Uhorn.sc
  </note>
  <outline>
    <contour>
      <point x="293" y="-10"/>
      <point x="381" y="60"/>
      <point x="417" y="174" type="curve" smooth="yes"/>
      <point x="479" y="370" type="line" smooth="yes"/>
      <point x="487" y="396"/>
      <point x="500" y="416"/>
      <point x="527" y="421" type="curve" smooth="yes"/>
      <point x="591" y="433"/>
      <point x="629" y="473"/>
      <point x="629" y="524" type="curve" smooth="yes"/>
      <point x="629" y="545"/>
      <point x="622" y="577"/>
      <point x="598" y="577" type="curve" smooth="yes"/>
      <point x="573" y="577"/>
      <point x="536" y="563"/>
      <point x="536" y="539" type="curve" smooth="yes"/>
      <point x="536" y="527"/>
      <point x="548" y="518"/>
      <point x="559" y="507" type="curve" smooth="yes"/>
      <point x="568" y="498"/>
      <point x="577" y="489"/>
      <point x="577" y="480" type="curve" smooth="yes"/>
      <point x="577" y="463"/>
      <point x="565" y="452"/>
      <point x="540" y="452" type="curve" smooth="yes"/>
      <point x="522" y="452"/>
      <point x="501" y="449"/>
      <point x="476" y="449" type="curve" smooth="yes"/>
      <point x="450" y="449"/>
      <point x="437" y="452"/>
      <point x="415" y="452" type="curve" smooth="yes"/>
      <point x="399" y="452"/>
      <point x="385" y="449"/>
      <point x="385" y="441" type="curve" smooth="yes"/>
      <point x="385" y="432"/>
      <point x="389" y="425"/>
      <point x="409" y="421" type="curve" smooth="yes"/>
      <point x="439" y="415"/>
      <point x="448" y="389"/>
      <point x="435" y="348" type="curve" smooth="yes"/>
      <point x="388" y="194" type="line" smooth="yes"/>
      <point x="354" y="84"/>
      <point x="298" y="40"/>
      <point x="219" y="40" type="curve" smooth="yes"/>
      <point x="144" y="40"/>
      <point x="85" y="93"/>
      <point x="116" y="191" type="curve" smooth="yes"/>
      <point x="165" y="349" type="line" smooth="yes"/>
      <point x="180" y="396"/>
      <point x="181" y="412"/>
      <point x="230" y="421" type="curve" smooth="yes"/>
      <point x="253" y="425"/>
      <point x="267" y="432"/>
      <point x="267" y="441" type="curve" smooth="yes"/>
      <point x="267" y="449"/>
      <point x="259" y="452"/>
      <point x="243" y="452" type="curve" smooth="yes"/>
      <point x="193" y="452"/>
      <point x="186" y="449"/>
      <point x="150" y="449" type="curve" smooth="yes"/>
      <point x="119" y="449"/>
      <point x="121" y="452"/>
      <point x="71" y="452" type="curve" smooth="yes"/>
      <point x="55" y="452"/>
      <point x="41" y="449"/>
      <point x="41" y="441" type="curve" smooth="yes"/>
      <point x="41" y="432"/>
      <point x="45" y="425"/>
      <point x="65" y="421" type="curve" smooth="yes"/>
      <point x="109" y="412"/>
      <point x="108" y="396"/>
      <point x="93" y="349" type="curve" smooth="yes"/>
      <point x="38" y="171" type="line" smooth="yes"/>
      <point x="4" y="61"/>
      <point x="86" y="-10"/>
      <point x="174" y="-10" type="curve" smooth="yes"/>
    </contour>
  </outline>
</glyph>
<glyph name="bar.sc" format="1">
  <advance width="260"/>
  <note>
    bar.sc
  </note>
  <outline>
    <contour>
      <point x="121" y="-127"/>
      <point x="160" y="-124"/>
      <point x="160" y="-103" type="curve" smooth="yes"/>
      <point x="160" y="536" type="line" smooth="yes"/>
      <point x="160" y="543"/>
      <point x="153" y="549"/>
      <point x="146" y="549" type="curve" smooth="yes"/>
      <point x="140" y="549"/>
      <point x="100" y="540"/>
      <point x="100" y="518" type="curve" smooth="yes"/>
      <point x="100" y="-113" type="line" smooth="yes"/>
      <point x="100" y="-120"/>
      <point x="106" y="-127"/>
      <point x="112" y="-127" type="curve" smooth="yes"/>
    </contour>
  </outline>
</glyph>
<glyph name="chi.a7" format="1">
  <advance width="407"/>
  <note>
    chi.a7
  </note>
  <outline>
    <contour>
      <point x="34" y="-290"/>
      <point x="58" y="-249"/>
      <point x="77" y="-210" type="curve" smooth="yes"/>
      <point x="190" y="26" type="line"/>
      <point x="192" y="26" type="line"/>
      <point x="204" y="-5" type="line" smooth="yes"/>
      <point x="268" y="-169"/>
      <point x="290" y="-285"/>
      <point x="385" y="-285" type="curve" smooth="yes"/>
      <point x="437" y="-285"/>
      <point x="476" y="-234"/>
      <point x="476" y="-222" type="curve" smooth="yes"/>
      <point x="476" y="-214"/>
      <point x="466" y="-207"/>
      <point x="460" y="-213" type="curve"/>
      <point x="449" y="-223"/>
      <point x="434" y="-239"/>
      <point x="408" y="-239" type="curve" smooth="yes"/>
      <point x="362" y="-239"/>
      <point x="335" y="-144"/>
      <point x="256" y="64" type="curve" smooth="yes"/>
      <point x="236" y="116" type="line"/>
      <point x="373" y="397" type="line" smooth="yes"/>
      <point x="376" y="402"/>
      <point x="377" y="415"/>
      <point x="368" y="415" type="curve" smooth="yes"/>
      <point x="338" y="415"/>
      <point x="316" y="378"/>
      <point x="298" y="340" type="curve" smooth="yes"/>
      <point x="216" y="171" type="line"/>
      <point x="214" y="171" type="line"/>
      <point x="163" y="310" type="line" smooth="yes"/>
      <point x="144" y="361"/>
      <point x="139" y="387"/>
      <point x="139" y="396" type="curve" smooth="yes"/>
      <point x="139" y="405"/>
      <point x="136" y="414"/>
      <point x="127" y="414" type="curve" smooth="yes"/>
      <point x="106" y="414"/>
      <point x="80" y="399"/>
      <point x="26" y="397" type="curve"/>
      <point x="21" y="396"/>
      <point x="11" y="393"/>
      <point x="11" y="380" type="curve" smooth="yes"/>
      <point x="11" y="370"/>
      <point x="21" y="366"/>
      <point x="24" y="365" type="curve" smooth="yes"/>
      <point x="53" y="360"/>
      <point x="71" y="348"/>
      <point x="84" y="312" type="curve" smooth="yes"/>
      <point x="172" y="81" type="line"/>
      <point x="4" y="-263" type="line" smooth="yes"/>
      <point x="-1" y="-273"/>
      <point x="-3" y="-290"/>
      <point x="10" y="-290" type="curve" smooth="yes"/>
    </contour>
  </outline>
</glyph>
<glyph name="dieresis.sc" format="1">
  <advance width="300"/>
  <note>
    dieresis.sc
  </note>
  <outline>
    <component base="uni0308.sc" xOffset="150"/>
    <contour>
      <point x="150" y="419" type="move" name="_top"/>
    </contour>
  </outline>
</glyph>
<glyph name="exclam.sc" format="1">
  <advance width="285"/>
  <note>
    exclam.sc
  </note>
  <outline>
    <contour>
      <point x="133" y="135"/>
      <point x="139" y="149"/>
      <point x="141" y="167" type="curve" smooth="yes"/>
      <point x="151" y="260"/>
      <point x="171" y="404"/>
      <point x="171" y="457" type="curve" smooth="yes"/>
      <point x="171" y="480"/>
      <point x="153" y="501"/>
      <point x="126" y="501" type="curve" smooth="yes"/>
      <point x="99" y="501"/>
      <point x="79" y="480"/>
      <point x="79" y="457" type="curve" smooth="yes"/>
      <point x="79" y="404"/>
      <point x="93" y="261"/>
      <point x="105" y="167" type="curve" smooth="yes"/>
      <point x="108" y="144"/>
      <point x="113" y="135"/>
      <point x="123" y="135" type="curve" smooth="yes"/>
    </contour>
    <contour>
      <point x="158" y="-44"/>
      <point x="185" y="-17"/>
      <point x="185" y="16" type="curve" smooth="yes"/>
      <point x="185" y="49"/>
      <point x="158" y="76"/>
      <point x="125" y="76" type="curve" smooth="yes"/>
      <point x="92" y="76"/>
      <point x="65" y="49"/>
      <point x="65" y="16" type="curve" smooth="yes"/>
      <point x="65" y="-17"/>
      <point x="92" y="-44"/>
      <point x="125" y="-44" type="curve" smooth="yes"/>
    </contour>
  </outline>
</glyph>
<glyph name="gravecomb.grk" format="1">
  <advance width="0"/>
  <note>
    gravecomb.grk
  </note>
  <outline>
    <contour>
      <point x="68" y="468"/>
      <point x="69" y="474"/>
      <point x="67" y="483" type="curve" smooth="yes"/>
      <point x="63" y="500"/>
      <point x="6" y="612"/>
      <point x="-12" y="645" type="curve" smooth="yes"/>
      <point x="-17" y="654"/>
      <point x="-28" y="658"/>
      <point x="-36" y="658" type="curve" smooth="yes"/>
      <point x="-56" y="658"/>
      <point x="-72" y="626"/>
      <point x="-68" y="608" type="curve" smooth="yes"/>
      <point x="-66" y="599"/>
      <point x="4" y="513"/>
      <point x="33" y="484" type="curve" smooth="yes"/>
      <point x="41" y="476"/>
      <point x="52" y="468"/>
      <point x="60" y="468" type="curve" smooth="yes"/>
    </contour>
    <contour>
      <point x="26" y="440" type="move" name="_top"/>
    </contour>
  </outline>
</glyph>
<glyph name="gravecomb.grksc" format="1">
  <advance width="0"/>
  <note>
    gravecomb.grksc
  </note>
  <outline>
    <contour>
      <point x="52" y="456"/>
      <point x="52" y="460"/>
      <point x="52" y="469" type="curve" smooth="yes"/>
      <point x="52" y="474"/>
      <point x="50" y="485"/>
      <point x="47" y="500" type="curve" smooth="yes"/>
      <point x="38" y="544"/>
      <point x="18" y="618"/>
      <point x="11" y="645" type="curve" smooth="yes"/>
      <point x="8" y="657"/>
      <point x="-6" y="663"/>
      <point x="-14" y="663" type="curve" smooth="yes"/>
      <point x="-33" y="663"/>
      <point x="-52" y="638"/>
      <point x="-52" y="622" type="curve" smooth="yes"/>
      <point x="-52" y="612"/>
      <point x="-2" y="514"/>
      <point x="19" y="478" type="curve" smooth="yes"/>
      <point x="25" y="468"/>
      <point x="35" y="456"/>
      <point x="43" y="456" type="curve" smooth="yes"/>
    </contour>
  </outline>
</glyph>
<glyph name="guilsinglleft.alt" format="1">
  <advance width="431"/>
  <note>
    guilsinglleft.alt
  </note>
  <outline>
    <contour>
      <point x="326" y="19"/>
      <point x="329" y="22"/>
      <point x="329" y="28" type="curve" smooth="yes"/>
      <point x="329" y="32"/>
      <point x="328" y="36"/>
      <point x="325" y="40" type="curve" smooth="yes"/>
      <point x="291" y="102"/>
      <point x="251" y="156"/>
      <point x="205" y="203" type="curve" smooth="yes"/>
      <point x="200" y="208"/>
      <point x="201" y="212"/>
      <point x="205" y="217" type="curve" smooth="yes"/>
      <point x="240" y="255"/>
      <point x="280" y="308"/>
      <point x="325" y="376" type="curve"/>
      <point x="329" y="383"/>
      <point x="331" y="388"/>
      <point x="331" y="392" type="curve" smooth="yes"/>
      <point x="331" y="397"/>
      <point x="328" y="400"/>
      <point x="323" y="400" type="curve" smooth="yes"/>
      <point x="314" y="400"/>
      <point x="305" y="396"/>
      <point x="297" y="388" type="curve"/>
      <point x="231" y="317"/>
      <point x="167" y="261"/>
      <point x="114" y="225" type="curve" smooth="yes"/>
      <point x="102" y="217"/>
      <point x="100" y="214"/>
      <point x="100" y="205" type="curve" smooth="yes"/>
      <point x="100" y="200"/>
      <point x="107" y="190"/>
      <point x="119" y="182" type="curve" smooth="yes"/>
      <point x="177" y="143"/>
      <point x="234" y="94"/>
      <point x="289" y="37" type="curve" smooth="yes"/>
      <point x="301" y="25"/>
      <point x="311" y="19"/>
      <point x="319" y="19" type="curve" smooth="yes"/>
    </contour>
  </outline>
</glyph>
<glyph name="j.dotless" format="1">
  <advance width="226"/>
  <note>
    j.dotless
  </note>
  <outline>
    <contour>
      <point x="41" y="-287"/>
      <point x="104" y="-220"/>
      <point x="129" y="-152" type="curve" smooth="yes"/>
      <point x="158" y="-72"/>
      <point x="159" y="29"/>
      <point x="159" y="91" type="curve" smooth="yes"/>
      <point x="159" y="275" type="line" smooth="yes"/>
      <point x="159" y="320"/>
      <point x="162" y="388"/>
      <point x="166" y="429" type="curve"/>
      <point x="166" y="432"/>
      <point x="163" y="434"/>
      <point x="159" y="434" type="curve" smooth="yes"/>
      <point x="157" y="434"/>
      <point x="153" y="431"/>
      <point x="146" y="427" type="curve" smooth="yes"/>
      <point x="127" y="415"/>
      <point x="89" y="389"/>
      <point x="39" y="377" type="curve" smooth="yes"/>
      <point x="35" y="376"/>
      <point x="32" y="370"/>
      <point x="32" y="365" type="curve" smooth="yes"/>
      <point x="32" y="359"/>
      <point x="35" y="353"/>
      <point x="40" y="352" type="curve" smooth="yes"/>
      <point x="74" y="345"/>
      <point x="86" y="315"/>
      <point x="86" y="279" type="curve" smooth="yes"/>
      <point x="86" y="69" type="line" smooth="yes"/>
      <point x="86" y="0"/>
      <point x="86" y="-136"/>
      <point x="57" y="-197" type="curve" smooth="yes"/>
      <point x="38" y="-237"/>
      <point x="15" y="-254"/>
      <point x="-9" y="-260" type="curve"/>
      <point x="-11" y="-261"/>
      <point x="-20" y="-269"/>
      <point x="-20" y="-277" type="curve" smooth="yes"/>
      <point x="-20" y="-284"/>
      <point x="-6" y="-287"/>
      <point x="1" y="-287" type="curve" smooth="yes"/>
    </contour>
    <contour>
      <point x="116" y="440" type="move" name="top"/>
    </contour>
  </outline>
</glyph>
<glyph name="macron.sc" format="1">
  <advance width="300"/>
  <note>
    macron.sc
  </note>
  <outline>
    <component base="macron" yOffset="-20"/>
    <contour>
      <point x="152" y="419" type="move" name="_top"/>
    </contour>
  </outline>
</glyph>
<glyph name="one.sc" format="1">
  <advance width="368"/>
  <note>
    one.sc
  </note>
  <outline>
    <contour>
      <point x="132" y="-3"/>
      <point x="136" y="2"/>
      <point x="184" y="2" type="curve" smooth="yes"/>
      <point x="231" y="2"/>
      <point x="234" y="-3"/>
      <point x="297" y="-3" type="curve" smooth="yes"/>
      <point x="311" y="-3"/>
      <point x="318" y="3"/>
      <point x="318" y="10" type="curve" smooth="yes"/>
      <point x="318" y="17"/>
      <point x="311" y="22"/>
      <point x="297" y="25" type="curve" smooth="yes"/>
      <point x="248" y="31"/>
      <point x="225" y="32"/>
      <point x="225" y="76" type="curve" smooth="yes"/>
      <point x="225" y="373" type="line" smooth="yes"/>
      <point x="225" y="424"/>
      <point x="257" y="423"/>
      <point x="289" y="430" type="curve" smooth="yes"/>
      <point x="294" y="431"/>
      <point x="306" y="434"/>
      <point x="306" y="443" type="curve" smooth="yes"/>
      <point x="306" y="451"/>
      <point x="295" y="455"/>
      <point x="289" y="455" type="curve" smooth="yes"/>
      <point x="224" y="455"/>
      <point x="227" y="451"/>
      <point x="184" y="451" type="curve" smooth="yes"/>
      <point x="141" y="451"/>
      <point x="143" y="455"/>
      <point x="76" y="455" type="curve" smooth="yes"/>
      <point x="67" y="455"/>
      <point x="59" y="449"/>
      <point x="59" y="442" type="curve" smooth="yes"/>
      <point x="59" y="437"/>
      <point x="66" y="431"/>
      <point x="76" y="430" type="curve" smooth="yes"/>
      <point x="118" y="426"/>
      <point x="144" y="419"/>
      <point x="144" y="373" type="curve" smooth="yes"/>
      <point x="144" y="76" type="line" smooth="yes"/>
      <point x="144" y="30"/>
      <point x="102" y="28"/>
      <point x="71" y="25" type="curve" smooth="yes"/>
      <point x="60" y="24"/>
      <point x="50" y="19"/>
      <point x="50" y="12" type="curve" smooth="yes"/>
      <point x="50" y="1"/>
      <point x="62" y="-3"/>
      <point x="71" y="-3" type="curve" smooth="yes"/>
    </contour>
  </outline>
</glyph>
<glyph name="parenleft.sc" format="1">
  <advance width="245"/>
  <note>
    parenleft.sc
  </note>
  <outline>
    <contour>
      <point x="169" y="-140"/>
      <point x="193" y="-137"/>
      <point x="193" y="-120" type="curve" smooth="yes"/>
      <point x="193" y="-113"/>
      <point x="190" y="-106"/>
      <point x="186" y="-101" type="curve" smooth="yes"/>
      <point x="149" y="-48"/>
      <point x="97" y="79"/>
      <point x="97" y="197" type="curve" smooth="yes"/>
      <point x="97" y="295"/>
      <point x="132" y="403"/>
      <point x="185" y="467" type="curve" smooth="yes"/>
      <point x="193" y="475"/>
      <point x="196" y="482"/>
      <point x="195" y="488" type="curve" smooth="yes"/>
      <point x="194" y="501"/>
      <point x="174" y="506"/>
      <point x="160" y="492" type="curve" smooth="yes"/>
      <point x="113" y="446"/>
      <point x="40" y="323"/>
      <point x="40" y="191" type="curve" smooth="yes"/>
      <point x="40" y="73"/>
      <point x="116" y="-77"/>
      <point x="163" y="-131" type="curve" smooth="yes"/>
    </contour>
  </outline>
</glyph>
<glyph name="plusminus.sc" format="1">
  <advance width="499"/>
  <note>
    plusminus.sc
  </note>
  <outline>
    <contour>
      <point x="419" y="40" type="line"/>
      <point x="438" y="40"/>
      <point x="450" y="63"/>
      <point x="450" y="80" type="curve" smooth="yes"/>
      <point x="450" y="86"/>
      <point x="444" y="90"/>
      <point x="437" y="90" type="curve"/>
      <point x="74" y="90" type="line"/>
      <point x="56" y="90"/>
      <point x="50" y="61"/>
      <point x="50" y="52" type="curve" smooth="yes"/>
      <point x="50" y="46"/>
      <point x="57" y="40"/>
      <point x="64" y="40" type="curve"/>
    </contour>
    <component base="plus.sc" yOffset="93"/>
  </outline>
</glyph>
<glyph name="question.sc" format="1">
  <advance width="387"/>
  <note>
    question.sc
  </note>
  <outline>
    <contour>
      <point x="176" y="124"/>
      <point x="181" y="134"/>
      <point x="181" y="142" type="curve" smooth="yes"/>
      <point x="181" y="188"/>
      <point x="196" y="200"/>
      <point x="245" y="222" type="curve" smooth="yes"/>
      <point x="311" y="255"/>
      <point x="341" y="256"/>
      <point x="341" y="314" type="curve" smooth="yes"/>
      <point x="341" y="355"/>
      <point x="304" y="424"/>
      <point x="248" y="469" type="curve" smooth="yes"/>
      <point x="215" y="495"/>
      <point x="173" y="509"/>
      <point x="140" y="509" type="curve" smooth="yes"/>
      <point x="120" y="509"/>
      <point x="100" y="494"/>
      <point x="100" y="475" type="curve" smooth="yes"/>
      <point x="100" y="453"/>
      <point x="121" y="427"/>
      <point x="142" y="427" type="curve" smooth="yes"/>
      <point x="152" y="427"/>
      <point x="159" y="428"/>
      <point x="166" y="428" type="curve" smooth="yes"/>
      <point x="173" y="429"/>
      <point x="180" y="430"/>
      <point x="189" y="430" type="curve" smooth="yes"/>
      <point x="257" y="430"/>
      <point x="290" y="393"/>
      <point x="290" y="343" type="curve" smooth="yes"/>
      <point x="290" y="321"/>
      <point x="257" y="299"/>
      <point x="229" y="289" type="curve" smooth="yes"/>
      <point x="166" y="263"/>
      <point x="128" y="244"/>
      <point x="128" y="217" type="curve" smooth="yes"/>
      <point x="128" y="181"/>
      <point x="137" y="164"/>
      <point x="144" y="147" type="curve" smooth="yes"/>
      <point x="149" y="134"/>
      <point x="159" y="124"/>
      <point x="166" y="124" type="curve" smooth="yes"/>
    </contour>
    <contour>
      <point x="213" y="-44"/>
      <point x="240" y="-17"/>
      <point x="240" y="16" type="curve" smooth="yes"/>
      <point x="240" y="49"/>
      <point x="213" y="76"/>
      <point x="180" y="76" type="curve" smooth="yes"/>
      <point x="147" y="76"/>
      <point x="120" y="49"/>
      <point x="120" y="16" type="curve" smooth="yes"/>
      <point x="120" y="-17"/>
      <point x="147" y="-44"/>
      <point x="180" y="-44" type="curve" smooth="yes"/>
    </contour>
  </outline>
</glyph>
<glyph name="quotesingle.alt" format="1">
  <advance width="195"/>
  <note>
    quotesingle.alt
  </note>
  <outline>
    <contour>
      <point x="113" y="426"/>
      <point x="117" y="438"/>
      <point x="119" y="449" type="curve" smooth="yes"/>
      <point x="133" y="504"/>
      <point x="149" y="622"/>
      <point x="149" y="644" type="curve" smooth="yes"/>
      <point x="149" y="672"/>
      <point x="132" y="690"/>
      <point x="103" y="690" type="curve" smooth="yes"/>
      <point x="74" y="690"/>
      <point x="57" y="671"/>
      <point x="57" y="644" type="curve" smooth="yes"/>
      <point x="57" y="622"/>
      <point x="73" y="506"/>
      <point x="87" y="449" type="curve" smooth="yes"/>
      <point x="89" y="439"/>
      <point x="95" y="426"/>
      <point x="103" y="426" type="curve" smooth="yes"/>
    </contour>
  </outline>
</glyph>
<glyph name="uni0304.cap" format="1">
  <advance width="0"/>
  <note>
    uni0304.cap
  </note>
  <outline>
    <contour>
      <point x="119" y="723" type="line" smooth="yes"/>
      <point x="135" y="723"/>
      <point x="150" y="745"/>
      <point x="150" y="765" type="curve" smooth="yes"/>
      <point x="150" y="771"/>
      <point x="143" y="777"/>
      <point x="137" y="777" type="curve" smooth="yes"/>
      <point x="-126" y="777" type="line" smooth="yes"/>
      <point x="-145" y="777"/>
      <point x="-150" y="744"/>
      <point x="-150" y="735" type="curve" smooth="yes"/>
      <point x="-150" y="729"/>
      <point x="-143" y="723"/>
      <point x="-136" y="723" type="curve" smooth="yes"/>
    </contour>
    <contour>
      <point x="-4" y="675" type="move" name="_top.cap"/>
    </contour>
  </outline>
</glyph>
<glyph name="uni0306.cyrcap" format="1">
  <advance width="0"/>
  <note>
    uni0306.cyrcap
  </note>
  <outline>
    <contour>
      <point x="78" y="692"/>
      <point x="142" y="751"/>
      <point x="142" y="829" type="curve" smooth="yes"/>
      <point x="142" y="836"/>
      <point x="140" y="846"/>
      <point x="134" y="846" type="curve" smooth="yes"/>
      <point x="132" y="846"/>
      <point x="124" y="842"/>
      <point x="122" y="834" type="curve" smooth="yes"/>
      <point x="108" y="777"/>
      <point x="75" y="734"/>
      <point x="1" y="734" type="curve" smooth="yes"/>
      <point x="-40" y="734"/>
      <point x="-61" y="752"/>
      <point x="-61" y="770" type="curve" smooth="yes"/>
      <point x="-61" y="777"/>
      <point x="-58" y="785"/>
      <point x="-54" y="793" type="curve" smooth="yes"/>
      <point x="-50" y="802"/>
      <point x="-48" y="814"/>
      <point x="-48" y="824" type="curve" smooth="yes"/>
      <point x="-48" y="847"/>
      <point x="-68" y="860"/>
      <point x="-93" y="860" type="curve" smooth="yes"/>
      <point x="-123" y="860"/>
      <point x="-143" y="830"/>
      <point x="-143" y="792" type="curve" smooth="yes"/>
      <point x="-143" y="746"/>
      <point x="-104" y="692"/>
      <point x="-2" y="692" type="curve" smooth="yes"/>
    </contour>
    <contour>
      <point x="0" y="675" type="move" name="_top.cap"/>
    </contour>
  </outline>
</glyph>
<glyph name="uni0307.cap" format="1">
  <advance width="0"/>
  <note>
    uni0307.cap
  </note>
  <outline>
    <contour>
      <point x="30" y="695"/>
      <point x="55" y="720"/>
      <point x="55" y="750" type="curve" smooth="yes"/>
      <point x="55" y="780"/>
      <point x="30" y="805"/>
      <point x="0" y="805" type="curve" smooth="yes"/>
      <point x="-30" y="805"/>
      <point x="-55" y="780"/>
      <point x="-55" y="750" type="curve" smooth="yes"/>
      <point x="-55" y="720"/>
      <point x="-30" y="695"/>
      <point x="0" y="695" type="curve" smooth="yes"/>
    </contour>
    <contour>
      <point x="0" y="675" type="move" name="_top.cap"/>
    </contour>
  </outline>
</glyph>
<glyph name="uni0308.grkstacksc" format="1">
  <advance width="0"/>
  <note>
    uni0308.grkstacksc
  </note>
  <outline>
    <contour>
      <point x="123" y="476"/>
      <point x="146" y="499"/>
      <point x="146" y="524" type="curve" smooth="yes"/>
      <point x="146" y="549"/>
      <point x="123" y="572"/>
      <point x="98" y="572" type="curve" smooth="yes"/>
      <point x="73" y="572"/>
      <point x="52" y="549"/>
      <point x="52" y="524" type="curve" smooth="yes"/>
      <point x="52" y="499"/>
      <point x="73" y="476"/>
      <point x="98" y="476" type="curve" smooth="yes"/>
    </contour>
    <contour>
      <point x="-74" y="476"/>
      <point x="-53" y="499"/>
      <point x="-53" y="524" type="curve" smooth="yes"/>
      <point x="-53" y="549"/>
      <point x="-74" y="572"/>
      <point x="-99" y="572" type="curve" smooth="yes"/>
      <point x="-124" y="572"/>
      <point x="-147" y="549"/>
      <point x="-147" y="524" type="curve" smooth="yes"/>
      <point x="-147" y="499"/>
      <point x="-124" y="476"/>
      <point x="-99" y="476" type="curve" smooth="yes"/>
    </contour>
  </outline>
</glyph>
<glyph name="uni0311.cap" format="1">
  <advance width="0"/>
  <note>
    uni0311.cap
  </note>
  <outline>
    <component base="uni0306.cap" yOffset="1512" yScale="-1"/>
    <contour>
      <point x="0" y="675" type="move" name="_top.cap"/>
    </contour>
  </outline>
</glyph>
<glyph name="zero.sc" format="1">
  <advance width="589"/>
  <note>
    zero.sc
  </note>
  <outline>
    <contour>
      <point x="165" y="455"/>
      <point x="60" y="352"/>
      <point x="60" y="225" type="curve" smooth="yes"/>
      <point x="60" y="94"/>
      <point x="163" y="-15"/>
      <point x="295" y="-15" type="curve" smooth="yes"/>
      <point x="425" y="-15"/>
      <point x="529" y="93"/>
      <point x="529" y="224" type="curve" smooth="yes"/>
      <point x="529" y="352"/>
      <point x="422" y="455"/>
      <point x="293" y="455" type="curve" smooth="yes"/>
    </contour>
    <contour>
      <point x="393" y="415"/>
      <point x="445" y="320"/>
      <point x="445" y="224" type="curve" smooth="yes"/>
      <point x="445" y="84"/>
      <point x="377" y="27"/>
      <point x="287" y="27" type="curve" smooth="yes"/>
      <point x="197" y="27"/>
      <point x="142" y="129"/>
      <point x="143" y="225" type="curve" smooth="yes"/>
      <point x="143" y="337"/>
      <point x="210" y="415"/>
      <point x="300" y="415" type="curve" smooth="yes"/>
    </contour>
  </outline>
</glyph>
